<?xml version="1.0" encoding="UTF-8" standalone="no"?>
<!-- Created with Inkscape (http://www.inkscape.org/) -->

<svg
   xmlns:dc="http://purl.org/dc/elements/1.1/"
   xmlns:cc="http://creativecommons.org/ns#"
   xmlns:rdf="http://www.w3.org/1999/02/22-rdf-syntax-ns#"
   xmlns:svg="http://www.w3.org/2000/svg"
   xmlns="http://www.w3.org/2000/svg"
   xmlns:sodipodi="http://sodipodi.sourceforge.net/DTD/sodipodi-0.dtd"
   xmlns:inkscape="http://www.inkscape.org/namespaces/inkscape"
   width="30"
   height="30"
   viewBox="0 0 7.9374998 7.9375002"
   version="1.1"
   id="svg8"
   inkscape:version="0.92.4 (5da689c313, 2019-01-14)"
   sodipodi:docname="or_ph_with_err.svg">
  <defs
     id="defs2" />
  <sodipodi:namedview
     id="base"
     pagecolor="#ffffff"
     bordercolor="#666666"
     borderopacity="1.0"
     inkscape:pageopacity="0.0"
     inkscape:pageshadow="2"
     inkscape:zoom="15.839192"
     inkscape:cx="18.933998"
     inkscape:cy="19.681698"
     inkscape:document-units="mm"
     inkscape:current-layer="g384"
     showgrid="true"
     units="px"
     borderlayer="true"
     inkscape:showpageshadow="false"
     inkscape:snap-bbox="true"
     inkscape:object-nodes="false"
     inkscape:snap-others="false"
     inkscape:window-width="1366"
     inkscape:window-height="715"
     inkscape:window-x="-8"
     inkscape:window-y="-8"
     inkscape:window-maximized="1">
    <inkscape:grid
       type="xygrid"
       id="grid10"
       spacingx="0.26458333"
       spacingy="0.26458333"
       dotted="false"
       enabled="false" />
  </sodipodi:namedview>
  <metadata
     id="metadata5">
    <rdf:RDF>
      <cc:Work
         rdf:about="">
        <dc:format>image/svg+xml</dc:format>
        <dc:type
           rdf:resource="http://purl.org/dc/dcmitype/StillImage" />
        <dc:title></dc:title>
      </cc:Work>
    </rdf:RDF>
  </metadata>
  <g
     inkscape:label="Capa 1"
     inkscape:groupmode="layer"
     id="layer1"
     transform="translate(0,-289.06248)">
    <g
       id="g206">
      <g
         id="g734">
        <rect
           style="fill:#3771c8;fill-opacity:1;stroke-width:0.26458332"
           id="rect4523"
           width="7.9375"
           height="7.9375105"
           x="0"
           y="289.06247" />
        <rect
           style="fill:#ff7f2a;fill-opacity:1;stroke-width:0.26458332"
           id="rect4531"
           width="6.3499999"
           height="6.3499985"
           x="0.79374999"
           y="289.85623" />
        <rect
           style="fill:#ffcc00;fill-opacity:1;stroke-width:0.26458332"
           id="rect5365"
           width="1.5875"
           height="2.3812499"
           x="2.3812499"
           y="290.64999" />
        <rect
           style="fill:#008000;fill-opacity:1;stroke-width:0.26458332"
           id="rect5367"
           width="1.5875"
           height="2.3812499"
           x="2.3812499"
           y="293.03122" />
        <rect
           style="fill:#d40000;fill-opacity:1;stroke-width:0.26458332"
           id="rect5369"
           width="1.5875"
           height="2.3812499"
           x="3.96875"
           y="293.03122" />
        <rect
           style="fill:#0066ff;fill-opacity:1;stroke-width:0.26458332"
           id="rect5371"
           width="1.5875"
           height="2.3812499"
           x="3.96875"
           y="290.64999" />
        <rect
           style="fill:#ff00ff;stroke-width:0.26458332"
           id="rect14"
           width="0.79374999"
           height="1.8520833"
           x="1.5875"
           y="291.17914" />
        <rect
           style="fill:#800000;stroke-width:0.26458332"
           id="rect16"
           width="0.79374999"
           height="2.1166666"
           x="1.5875"
           y="293.03122" />
        <rect
           style="fill:#483737;stroke-width:0.26458332"
           id="rect18"
           width="0.79374999"
           height="1.8520833"
           x="5.5562501"
           y="291.17914" />
        <rect
           style="fill:#808000;stroke-width:0.26458332"
           id="rect20"
           width="0.79374999"
           height="2.1166666"
           x="5.5562501"
           y="293.03122" />
        <g
           id="g384">
          <rect
             y="293.82495"
             x="2.3812499"
             height="0.26458332"
             width="0.26458332"
             id="rect22-79"
             style="fill:#ffffff;stroke-width:0.26458332" />
          <rect
             y="293.82495"
             x="3.1749997"
             height="0.26458332"
             width="0.26458332"
             id="rect22-24-48"
             style="fill:#ffffff;stroke-width:0.26458332" />
          <rect
             y="293.82495"
             x="3.4395831"
             height="0.26458332"
             width="0.26458332"
             id="rect22-24-824"
             style="fill:#ffffff;stroke-width:0.26458332" />
          <g
             id="g293"
             style="fill:#ffffff">
            <rect
               style="fill:#ffffff;stroke-width:0.26458332"
               id="rect22"
               width="0.26458332"
               height="0.26458332"
               x="1.8520833"
               y="292.76663" />
            <rect
               style="fill:#ffffff;stroke-width:0.26458332"
               id="rect22-9"
               width="0.26458332"
               height="0.26458332"
               x="2.1166666"
               y="292.76663" />
            <rect
               style="fill:#ffffff;stroke-width:0.26458332"
               id="rect22-4"
               width="0.26458332"
               height="0.26458332"
               x="2.3812499"
               y="292.76663" />
            <rect
               style="fill:#ffffff;stroke-width:0.26458332"
               id="rect22-1"
               width="0.26458332"
               height="0.26458332"
               x="2.3812499"
               y="292.50204" />
            <rect
               style="fill:#ffffff;stroke-width:0.26458332"
               id="rect22-10"
               width="0.26458332"
               height="0.26458332"
               x="2.3812499"
               y="292.23746" />
            <rect
               style="fill:#ffffff;stroke-width:0.26458332"
               id="rect22-99"
               width="0.26458332"
               height="0.26458332"
               x="2.1166666"
               y="292.23746" />
            <rect
               style="fill:#ffffff;stroke-width:0.26458332"
               id="rect22-5"
               width="0.26458332"
               height="0.26458332"
               x="2.1166666"
               y="292.50204" />
            <rect
               style="fill:#ffffff;stroke-width:0.26458332"
               id="rect22-8"
               width="0.26458332"
               height="0.26458332"
               x="2.6458333"
               y="292.50204" />
            <rect
               style="fill:#ffffff;stroke-width:0.26458332"
               id="rect22-7"
               width="0.26458332"
               height="0.26458332"
               x="2.6458333"
               y="292.23746" />
            <rect
               style="fill:#ffffff;stroke-width:0.26458332"
               id="rect22-11"
               width="0.26458332"
               height="0.26458332"
               x="2.6458333"
               y="291.97287" />
            <rect
               style="fill:#ffffff;stroke-width:0.26458332"
               id="rect22-94"
               width="0.26458332"
               height="0.26458332"
               x="2.6458333"
               y="291.70831" />
            <rect
               style="fill:#ffffff;stroke-width:0.26458332"
               id="rect22-75"
               width="0.26458332"
               height="0.26458332"
               x="3.175"
               y="291.70831" />
            <rect
               style="fill:#ffffff;stroke-width:0.26458332"
               id="rect22-0"
               width="0.26458332"
               height="0.26458332"
               x="2.9104166"
               y="291.97287" />
            <rect
               style="fill:#ffffff;stroke-width:0.26458332"
               id="rect22-43"
               width="0.26458332"
               height="0.26458332"
               x="3.175"
               y="291.97287" />
            <rect
               style="fill:#ffffff;stroke-width:0.26458332"
               id="rect22-82"
               width="0.26458332"
               height="0.26458332"
               x="3.4395833"
               y="292.23746" />
            <rect
               style="fill:#ffffff;stroke-width:0.26458332"
               id="rect22-6"
               width="0.26458332"
               height="0.26458332"
               x="3.4395833"
               y="292.50204" />
            <rect
               style="fill:#ffffff;stroke-width:0.26458332"
               id="rect22-88"
               width="0.26458332"
               height="0.26458332"
               x="3.175"
               y="292.76663" />
            <rect
               style="fill:#ffffff;stroke-width:0.26458332"
               id="rect22-56"
               width="0.26458332"
               height="0.26458332"
               x="3.175"
               y="293.03122" />
            <rect
               style="fill:#ffffff;stroke-width:0.26458332"
               id="rect22-72"
               width="0.26458332"
               height="0.26458332"
               x="2.9104166"
               y="293.29581" />
            <rect
               style="fill:#ffffff;stroke-width:0.26458332"
               id="rect22-07"
               width="0.26458332"
               height="0.26458332"
               x="2.6458333"
               y="293.29581" />
            <rect
               style="fill:#ffffff;stroke-width:0.26458332"
               id="rect22-02"
               width="0.26458332"
               height="0.26458332"
               x="2.3812499"
               y="293.29581" />
            <rect
               style="fill:#ffffff;stroke-width:0.26458332"
               id="rect22-62"
               width="0.26458332"
               height="0.26458332"
               x="2.3812499"
               y="293.56039" />
            <rect
               style="fill:#ffffff;stroke-width:0.26458332"
               id="rect22-96"
               width="0.26458332"
               height="0.26458332"
               x="2.1166666"
               y="293.56039" />
            <rect
               style="fill:#ffffff;stroke-width:0.26458332"
               id="rect22-949"
               width="0.26458332"
               height="0.26458332"
               x="2.1166666"
               y="293.29581" />
            <rect
               style="fill:#ffffff;stroke-width:0.26458332"
               id="rect22-65"
               width="0.26458332"
               height="0.26458332"
               x="1.8520833"
               y="293.29581" />
            <rect
               style="fill:#ffffff;stroke-width:0.26458332"
               id="rect22-86"
               width="0.26458332"
               height="0.26458332"
               x="1.5875"
               y="293.29581" />
            <rect
               style="fill:#ffffff;stroke-width:0.26458332"
               id="rect22-67"
               width="0.26458332"
               height="0.26458332"
               x="1.5875"
               y="293.03122" />
            <rect
               style="fill:#ffffff;stroke-width:0.26458332"
               id="rect22-76"
               width="0.26458332"
               height="0.26458332"
               x="1.3229166"
               y="293.03122" />
            <rect
               style="fill:#ffffff;stroke-width:0.26458332"
               id="rect22-075"
               width="0.26458332"
               height="0.26458332"
               x="1.8520833"
               y="293.03122" />
            <rect
               style="fill:#ffffff;stroke-width:0.26458332"
               id="rect22-103"
               width="0.26458332"
               height="0.26458332"
               x="2.1166666"
               y="293.03122" />
            <rect
               style="fill:#ffffff;stroke-width:0.26458332"
               id="rect22-58"
               width="0.26458332"
               height="0.26458332"
               x="2.3812499"
               y="293.03122" />
            <rect
               style="fill:#ffffff;stroke-width:0.26458332"
               id="rect22-2"
               width="0.26458332"
               height="0.26458332"
               x="2.6458333"
               y="293.03122" />
            <rect
               style="fill:#ffffff;stroke-width:0.26458332"
               id="rect22-650"
               width="0.26458332"
               height="0.26458332"
               x="2.9104166"
               y="293.03122" />
            <rect
               style="fill:#ffffff;stroke-width:0.26458332"
               id="rect22-26"
               width="0.26458332"
               height="0.26458332"
               x="3.4395833"
               y="293.03122" />
            <rect
               style="fill:#ffffff;stroke-width:0.26458332"
               id="rect22-829"
               width="0.26458332"
               height="0.26458332"
               x="3.7041667"
               y="293.03122" />
            <rect
               style="fill:#ffffff;stroke-width:0.26458332"
               id="rect22-81"
               width="0.26458332"
               height="0.26458332"
               x="3.96875"
               y="293.03122" />
            <rect
               style="fill:#ffffff;stroke-width:0.26458332"
               id="rect22-077"
               width="0.26458332"
               height="0.26458332"
               x="3.96875"
               y="293.29581" />
            <rect
               style="fill:#ffffff;stroke-width:0.26458332"
               id="rect22-64"
               width="0.26458332"
               height="0.26458332"
               x="4.2333331"
               y="293.29581" />
            <rect
               style="fill:#ffffff;stroke-width:0.26458332"
               id="rect22-28"
               width="0.26458332"
               height="0.26458332"
               x="4.2333331"
               y="293.56039" />
            <rect
               style="fill:#ffffff;stroke-width:0.26458332"
               id="rect22-04"
               width="0.26458332"
               height="0.26458332"
               x="4.4979167"
               y="293.56039" />
            <rect
               style="fill:#ffffff;stroke-width:0.26458332"
               id="rect22-562"
               width="0.26458332"
               height="0.26458332"
               x="4.2333331"
               y="292.76663" />
            <rect
               style="fill:#ffffff;stroke-width:0.26458332"
               id="rect22-3"
               width="0.26458332"
               height="0.26458332"
               x="4.4979167"
               y="292.76663" />
            <rect
               style="fill:#ffffff;stroke-width:0.26458332"
               id="rect22-42"
               width="0.26458332"
               height="0.26458332"
               x="4.4979167"
               y="292.50204" />
            <rect
               style="fill:#ffffff;stroke-width:0.26458332"
               id="rect22-627"
               width="0.26458332"
               height="0.26458332"
               x="4.2333331"
               y="292.23746" />
            <rect
               style="fill:#ffffff;stroke-width:0.26458332"
               id="rect22-89"
               width="0.26458332"
               height="0.26458332"
               x="3.96875"
               y="292.50204" />
            <rect
               style="fill:#ffffff;stroke-width:0.26458332"
               id="rect22-264"
               width="0.26458332"
               height="0.26458332"
               x="3.96875"
               y="292.23746" />
            <rect
               style="fill:#ffffff;stroke-width:0.26458332"
               id="rect22-24"
               width="0.26458332"
               height="0.26458332"
               x="3.1749997"
               y="292.23746" />
            <rect
               style="fill:#ffffff;stroke-width:0.26458332"
               id="rect22-24-5"
               width="0.26458332"
               height="0.26458332"
               x="3.1749997"
               y="292.50204" />
            <rect
               style="fill:#ffffff;stroke-width:0.26458332"
               id="rect22-24-6"
               width="0.26458332"
               height="0.26458332"
               x="3.4395831"
               y="292.76663" />
            <rect
               style="fill:#ffffff;stroke-width:0.26458332"
               id="rect22-24-3"
               width="0.26458332"
               height="0.26458332"
               x="3.9687498"
               y="292.76663" />
            <rect
               style="fill:#ffffff;stroke-width:0.26458332"
               id="rect22-24-2"
               width="0.26458332"
               height="0.26458332"
               x="2.9104164"
               y="292.50204" />
            <rect
               style="fill:#ffffff;stroke-width:0.26458332"
               id="rect22-24-59"
               width="0.26458332"
               height="0.26458332"
               x="2.9104164"
               y="292.23746" />
            <rect
               style="fill:#ffffff;stroke-width:0.26458332"
               id="rect22-24-22"
               width="0.26458332"
               height="0.26458332"
               x="2.645833"
               y="292.76663" />
            <rect
               style="fill:#ffffff;stroke-width:0.26458332"
               id="rect22-24-0"
               width="0.26458332"
               height="0.26458332"
               x="2.9104164"
               y="292.76663" />
            <rect
               style="fill:#ffffff;stroke-width:0.26458332"
               id="rect22-24-220"
               width="0.26458332"
               height="0.26458332"
               x="4.2333331"
               y="293.03122" />
            <rect
               style="fill:#ffffff;stroke-width:0.26458332"
               id="rect22-24-8"
               width="0.26458332"
               height="0.26458332"
               x="4.4979162"
               y="293.03122" />
            <rect
               style="fill:#ffffff;stroke-width:0.26458332"
               id="rect22-24-1"
               width="0.26458332"
               height="0.26458332"
               x="4.4979162"
               y="293.29581" />
            <rect
               style="fill:#ffffff;stroke-width:0.26458332"
               id="rect22-24-82"
               width="0.26458332"
               height="0.26458332"
               x="4.2333331"
               y="292.50204" />
            <rect
               style="fill:#ffffff;stroke-width:0.26458332"
               id="rect22-24-89"
               width="0.26458332"
               height="0.26458332"
               x="4.7624998"
               y="292.76663" />
            <rect
               style="fill:#ffffff;stroke-width:0.26458332"
               id="rect22-24-14"
               width="0.26458332"
               height="0.26458332"
               x="4.7624998"
               y="293.03122" />
            <rect
               style="fill:#ffffff;stroke-width:0.26458332"
               id="rect22-24-64"
               width="0.26458332"
               height="0.26458332"
               x="3.7041664"
               y="292.76663" />
            <rect
               style="fill:#ffffff;stroke-width:0.26458332"
               id="rect22-24-10"
               width="0.26458332"
               height="0.26458332"
               x="3.7041664"
               y="292.50204" />
            <rect
               style="fill:#ffffff;stroke-width:0.26458332"
               id="rect22-24-24"
               width="0.26458332"
               height="0.26458332"
               x="4.4979162"
               y="292.23746" />
            <rect
               style="fill:#ffffff;stroke-width:0.26458332"
               id="rect22-24-19"
               width="0.26458332"
               height="0.26458332"
               x="5.0270829"
               y="292.50204" />
            <rect
               style="fill:#ffffff;stroke-width:0.26458332"
               id="rect22-24-38"
               width="0.26458332"
               height="0.26458332"
               x="5.0270829"
               y="292.76663" />
            <rect
               style="fill:#ffffff;stroke-width:0.26458332"
               id="rect22-24-4"
               width="0.26458332"
               height="0.26458332"
               x="5.2916665"
               y="292.76663" />
            <rect
               style="fill:#ffffff;stroke-width:0.26458332"
               id="rect22-24-87"
               width="0.26458332"
               height="0.26458332"
               x="5.5562496"
               y="292.76663" />
            <rect
               style="fill:#ffffff;stroke-width:0.26458332"
               id="rect22-24-31"
               width="0.26458332"
               height="0.26458332"
               x="5.5562496"
               y="293.03122" />
            <rect
               style="fill:#ffffff;stroke-width:0.26458332"
               id="rect22-24-872"
               width="0.26458332"
               height="0.26458332"
               x="5.8208332"
               y="292.76663" />
            <rect
               style="fill:#ffffff;stroke-width:0.26458332"
               id="rect22-24-823"
               width="0.26458332"
               height="0.26458332"
               x="5.8208332"
               y="292.50204" />
            <rect
               style="fill:#ffffff;stroke-width:0.26458332"
               id="rect22-24-643"
               width="0.26458332"
               height="0.26458332"
               x="5.5562496"
               y="292.50204" />
            <rect
               style="fill:#ffffff;stroke-width:0.26458332"
               id="rect22-24-9"
               width="0.26458332"
               height="0.26458332"
               x="5.0270829"
               y="293.03122" />
            <rect
               style="fill:#ffffff;stroke-width:0.26458332"
               id="rect22-24-103"
               width="0.26458332"
               height="0.26458332"
               x="5.5562496"
               y="292.23746" />
            <rect
               style="fill:#ffffff;stroke-width:0.26458332"
               id="rect22-24-06"
               width="0.26458332"
               height="0.26458332"
               x="6.0854163"
               y="292.23746" />
            <rect
               style="fill:#ffffff;stroke-width:0.26458332"
               id="rect22-24-99"
               width="0.26458332"
               height="0.26458332"
               x="6.0854163"
               y="292.50204" />
            <rect
               style="fill:#ffffff;stroke-width:0.26458332"
               id="rect22-24-598"
               width="0.26458332"
               height="0.26458332"
               x="2.9104164"
               y="293.56036" />
            <rect
               style="fill:#ffffff;stroke-width:0.26458332"
               id="rect22-24-26"
               width="0.26458332"
               height="0.26458332"
               x="3.1749997"
               y="293.56036" />
            <rect
               style="fill:#ffffff;stroke-width:0.26458332"
               id="rect22-24-12"
               width="0.26458332"
               height="0.26458332"
               x="6.3499999"
               y="292.50204" />
            <rect
               style="fill:#ffffff;stroke-width:0.26458332"
               id="rect22-24-21"
               width="0.26458332"
               height="0.26458332"
               x="6.3499999"
               y="292.76663" />
            <rect
               style="fill:#ffffff;stroke-width:0.26458332"
               id="rect22-24-7"
               width="0.26458332"
               height="0.26458332"
               x="6.614583"
               y="292.50204" />
            <rect
               style="fill:#ffffff;stroke-width:0.26458332"
               id="rect22-24-75"
               width="0.26458332"
               height="0.26458332"
               x="6.8791666"
               y="292.50204" />
            <rect
               style="fill:#ffffff;stroke-width:0.26458332"
               id="rect22-24-97"
               width="0.26458332"
               height="0.26458332"
               x="6.8791666"
               y="292.23746" />
            <rect
               style="fill:#ffffff;stroke-width:0.26458332"
               id="rect22-24-592"
               width="0.26458332"
               height="0.26458332"
               x="6.614583"
               y="292.23746" />
            <rect
               style="fill:#ffffff;stroke-width:0.26458332"
               id="rect22-24-79"
               width="0.26458332"
               height="0.26458332"
               x="7.1437497"
               y="292.50204" />
            <rect
               style="fill:#ffffff;stroke-width:0.26458332"
               id="rect22-24-95"
               width="0.26458332"
               height="0.26458332"
               x="7.4083328"
               y="292.50204" />
          </g>
          <path
             style="fill:#ffffff;stroke-width:0.06313454"
             d="m 11.054808,14.491495 v -0.473509 h 0.947018 0.947018 v 0.473509 0.473509 h -0.947018 -0.947018 z"
             id="path386"
             inkscape:connector-curvature="0"
             transform="matrix(0.26458333,0,0,0.26458333,0,289.06248)" />
          <path
             style="fill:#ffffff;stroke-width:0.06313454"
             d="M 9.9942266,14.509934 9.9815216,14.023297 9.492229,14.001777 9.0029364,13.980257 9.492229,13.967547 9.9815216,13.954837 V 13.483984 13.01313 L 9.492229,12.99161 9.0029364,12.97009 l 0.4876482,-0.01271 0.4876482,-0.01271 0.017428,-0.962801 0.017428,-0.962802 1.465243,-0.01694 1.465243,-0.01694 0.0215,-0.488136 c 0.01182,-0.268474 0.02721,0.171215 0.0342,0.977087 l 0.01271,1.465222 0.489292,0.02152 0.489293,0.02152 -0.489293,0.01271 -0.489292,0.01271 v 0.470853 0.470854 l 0.489292,0.02152 0.489293,0.02152 -0.486637,0.01271 -0.486637,0.01271 -0.02152,0.489292 -0.02152,0.489293 -0.0127,-0.489293 -0.01271,-0.489292 H 12.004482 11.06012 l -0.02152,0.489292 -0.02152,0.489293 -0.01271,-0.489293 -0.01271,-0.489292 h -0.47084 -0.470853 l -0.02152,0.489292 -0.02152,0.489293 z m 0.9974474,-1.028592 v -0.473509 h -0.473509 -0.473509 v 0.473509 0.473509 h 0.473509 0.473509 z m 1.95717,0 v -0.473509 h -0.947018 -0.947018 v 0.473509 0.473509 h 0.947018 0.947018 z m -1.95717,-1.483662 v -0.947018 h -0.473509 -0.473509 v 0.947018 0.947018 h 0.473509 0.473509 z m 1.95717,0 v -0.947018 h -0.947018 -0.947018 v 0.947018 0.947018 h 0.947018 0.947018 z"
             id="path388"
             inkscape:connector-curvature="0"
             transform="matrix(0.26458333,0,0,0.26458333,0,289.06248)" />
          <path
             style="fill:#ffffff;stroke-width:0.06313454"
             d="m 9.0345031,14.495306 v -0.469698 l 0.2367545,-0.02477 0.2367545,-0.02477 -0.2348976,-0.01061 -0.2348976,-0.01061 V 12.976266 11.99768 h 0.4630706 0.4630706 l 0.040149,-0.292917 c 0.02208,-0.161104 0.04015,-0.601467 0.04015,-0.978585 V 10.04051 h 0.473509 0.473509 v 0.473509 0.473509 h 0.505076 0.505076 V 10.514019 10.04051 h 0.464152 0.464151 l 0.04055,0.52086 c 0.0223,0.286473 0.04072,0.726836 0.04092,0.978585 l 3.79e-4,0.457725 h 0.471652 0.471652 v 0.974885 0.974885 l -0.234898,0.02466 -0.234897,0.02465 0.236754,0.01061 0.236755,0.01061 v 0.473509 0.473509 h -0.469316 c -0.463514,0 -0.46964,-0.0021 -0.495616,-0.17362 l -0.0263,-0.17362 -0.0095,0.17362 -0.0095,0.17362 h -0.941757 c -0.694332,0 -0.950123,-0.02073 -0.973601,-0.07892 -0.02548,-0.06313 -0.03284,-0.06313 -0.03683,0 -0.0035,0.05562 -0.143672,0.07892 -0.474682,0.07892 h -0.469698 l -0.02476,-0.236755 -0.02477,-0.236754 -0.010613,0.236754 -0.010613,0.236755 h -0.473509 -0.473509 z"
             id="path390"
             inkscape:connector-curvature="0"
             transform="matrix(0.26458333,0,0,0.26458333,0,289.06248)" />
          <path
             style="fill:#ffffff;stroke-width:0.06313454"
             d="m 8.9985956,13.481342 c 4.13e-5,-0.833376 0.00902,-1.16557 0.019964,-0.73821 0.010939,0.42736 0.010905,1.109213 -7.51e-5,1.515229 -0.01098,0.406015 -0.01993,0.05636 -0.019889,-0.777019 z"
             id="path392"
             inkscape:connector-curvature="0"
             transform="matrix(0.26458333,0,0,0.26458333,0,289.06248)" />
          <path
             style="fill:#ffffff;stroke-width:0.06313454"
             d="m 9.0345031,16.5118 v -0.473509 h 0.473509 0.473509 v 0.473509 0.473509 h -0.473509 -0.473509 z"
             id="path394"
             inkscape:connector-curvature="0"
             transform="matrix(0.26458333,0,0,0.26458333,0,289.06248)" />
          <path
             style="fill:#ffffff;stroke-width:0.06313454"
             d="m 9.0345031,16.5118 v -0.473509 h 0.473509 0.473509 v 0.473509 0.473509 h -0.473509 -0.473509 z"
             id="path396"
             inkscape:connector-curvature="0"
             transform="matrix(0.26458333,0,0,0.26458333,0,289.06248)" />
          <path
             style="fill:#ffffff;stroke-width:0.06313454"
             d="m 10.044656,16.5118 v -0.473509 h 0.473509 0.473509 v 0.473509 0.473509 h -0.473509 -0.473509 z"
             id="path398"
             inkscape:connector-curvature="0"
             transform="matrix(0.26458333,0,0,0.26458333,0,289.06248)" />
          <path
             style="fill:#ffffff;stroke-width:0.06313454"
             d="m 10.044656,16.5118 v -0.473509 h 0.473509 0.473509 v 0.473509 0.473509 h -0.473509 -0.473509 z"
             id="path400"
             inkscape:connector-curvature="0"
             transform="matrix(0.26458333,0,0,0.26458333,0,289.06248)" />
          <path
             style="fill:#ffffff;stroke-width:0.06313454"
             d="m 11.054808,15.501647 v -0.473509 h 0.947018 0.947018 v 0.473509 0.473509 h -0.947018 -0.947018 z"
             id="path402"
             inkscape:connector-curvature="0"
             transform="matrix(0.26458333,0,0,0.26458333,0,289.06248)" />
          <path
             style="fill:#ffffff;stroke-width:0.06313454"
             d="m 10.536946,15.991271 c 0.288122,-0.01173 0.74269,-0.01166 1.010153,1.45e-4 0.267462,0.01181 0.03173,0.0214 -0.523858,0.02132 -0.555584,-7.9e-5 -0.774417,-0.0097 -0.486295,-0.02146 z"
             id="path404"
             inkscape:connector-curvature="0"
             transform="matrix(0.26458333,0,0,0.26458333,0,289.06248)" />
          <path
             style="fill:#ffffff;stroke-width:0.06313454"
             d="m 10.044656,16.5118 v -0.473509 h 0.473509 0.473509 v 0.473509 0.473509 h -0.473509 -0.473509 z"
             id="path406"
             inkscape:connector-curvature="0"
             transform="matrix(0.26458333,0,0,0.26458333,0,289.06248)" />
          <path
             style="fill:#ffffff;stroke-width:0.06313454"
             d="m 10.044656,16.5118 v -0.473509 h 0.473509 0.473509 v 0.473509 0.473509 h -0.473509 -0.473509 z"
             id="path408"
             inkscape:connector-curvature="0"
             transform="matrix(0.26458333,0,0,0.26458333,0,289.06248)" />
          <path
             style="fill:#ffffff;stroke-width:0.06313454"
             d="m 10.044656,16.5118 v -0.473509 h 0.473509 0.473509 v 0.473509 0.473509 h -0.473509 -0.473509 z"
             id="path410"
             inkscape:connector-curvature="0"
             transform="matrix(0.26458333,0,0,0.26458333,0,289.06248)" />
          <path
             style="fill:#ffffff;stroke-width:0.06313454"
             d="M 7.0141981,16.5118 V 16.038291 H 9.0029359 10.991674 V 16.5118 16.985309 H 9.0029359 7.0141981 Z"
             id="path412"
             inkscape:connector-curvature="0"
             transform="matrix(0.26458333,0,0,0.26458333,0,289.06248)" />
          <path
             style="fill:#ffffff;stroke-width:0.06313454"
             d="m 6.0040455,16.5118 v -0.473509 h 0.473509 0.473509 v 0.473509 0.473509 h -0.473509 -0.473509 z"
             id="path414"
             inkscape:connector-curvature="0"
             transform="matrix(0.26458333,0,0,0.26458333,0,289.06248)" />
          <path
             style="fill:#ffffff;stroke-width:0.06313454"
             d="m 7.0141981,16.5118 v -0.473509 l 1.7835505,-0.01365 c 0.9809528,-0.0075 1.4355214,-0.02259 1.0101526,-0.03351 L 9.0345031,15.97127 V 15.468137 14.965004 H 8.4978596 7.9612161 v 0.505076 0.505076 H 7.4905917 7.0199673 l -0.022086,-0.426158 -0.022086,-0.426158 -0.012366,0.426158 -0.012365,0.426158 h -0.947018 -0.947018 v -0.463915 -0.463914 l 0.672734,-0.04116 c 0.3700037,-0.02264 0.810367,-0.04116 0.9785853,-0.04116 h 0.3058513 v -0.473509 -0.473509 l 0.9628016,-0.01255 c 0.5295409,-0.0069 0.7568252,-0.02235 0.5050763,-0.03433 L 8.0243506,13.949319 V 12.9735 11.99768 h 0.9692276 0.9692276 l 0.040546,-0.520859 c 0.0223,-0.286473 0.04072,-0.726837 0.04092,-0.978586 l 3.79e-4,-0.457725 h 0.473509 0.473509 v 0.473509 0.473509 h 0.505076 0.505076 V 10.514019 10.04051 h 0.464515 0.464516 l 0.04056,0.388068 c 0.02231,0.213438 0.04056,0.653801 0.04056,0.978586 v 0.590516 h 0.473509 0.473509 v 0.973956 c 0,0.874489 -0.01128,0.976905 -0.110486,1.002829 -0.105224,0.0275 -0.105224,0.02922 0,0.0362 0.09541,0.0063 0.110486,0.07625 0.110486,0.5124 v 0.505076 h -0.50507 -0.505076 v 0.473509 0.473509 h -0.654101 c -0.359755,0 -0.785913,0.01807 -0.947018,0.04015 l -0.292917,0.04015 v 0.464927 0.464928 H 9.0345031 7.0141981 Z m 2.1926097,-2.531958 c -0.020979,-0.02098 -0.075433,-0.02322 -0.1210079,-0.005 -0.050364,0.02015 -0.035404,0.03511 0.038144,0.03814 0.066554,0.0027 0.1038431,-0.01218 0.082864,-0.03316 z"
             id="path416"
             inkscape:connector-curvature="0"
             transform="matrix(0.26458333,0,0,0.26458333,0,289.06248)" />
          <path
             style="fill:#ffffff;stroke-width:0.06313454"
             d="m 7.0141981,16.5118 v -0.473509 l 1.4363106,-0.01237 c 0.7899708,-0.0068 1.2445395,-0.0223 1.0101525,-0.03445 L 9.0345031,15.969387 V 15.467195 14.965004 H 8.4978596 7.9612161 v 0.505076 0.505076 H 7.4910065 7.0207968 L 6.9976089,15.6437 6.9744211,15.312243 6.9627423,15.6437 6.9510635,15.975156 h -0.947018 -0.947018 v -0.473509 -0.473509 l 0.5524272,-4.48e-4 c 0.3038349,-2.46e-4 0.7441983,-0.01856 0.9785852,-0.0407 l 0.4261582,-0.04025 v -0.464379 -0.464379 l 0.6471289,-0.0086 c 0.355921,-0.0047 0.5832053,-0.02091 0.5050763,-0.03596 -0.1399945,-0.02696 -0.1420527,-0.04148 -0.1420527,-1.001554 V 11.99768 h 0.9719381 0.9719382 l 0.045863,-0.978585 0.04586,-0.978585 h 0.46586 0.465861 v 0.473509 0.473509 h 0.505076 0.505076 V 10.514019 10.04051 h 0.464928 0.464927 l 0.04015,0.292917 c 0.02208,0.161105 0.04015,0.601468 0.04015,0.978585 v 0.685668 h 0.46586 0.465861 l 0.04586,0.978586 0.04586,0.978585 h 0.464206 0.464206 l 0.02152,-0.489293 0.02152,-0.489292 0.01271,0.52086 0.01271,0.52086 h 0.473509 0.473509 v 0.473509 0.473509 h 1.988738 1.988737 v 0.505076 0.505076 h -0.470743 -0.470743 l -0.02179,-0.457725 -0.02179,-0.457726 -0.01254,0.458156 -0.01254,0.458156 -1.957171,-0.0028 -1.95717,-0.0028 V 15.467749 14.965004 H 14.49564 13.958997 v 0.505076 0.505076 H 13.488143 13.01729 l -0.02152,-0.489293 -0.02152,-0.489292 -0.01271,0.489292 -0.01271,0.489293 -0.836532,0.01194 c -0.460093,0.0066 -0.673172,0.02219 -0.473509,0.03472 l 0.363023,0.02278 v 0.470358 0.470359 H 9.5080121 7.0141981 Z"
             id="path418"
             inkscape:connector-curvature="0"
             transform="matrix(0.26458333,0,0,0.26458333,0,289.06248)" />
          <path
             style="fill:#ffffff;stroke-width:0.06313454"
             d="m 7.0141981,16.5118 v -0.473509 l 1.2153397,-0.0101 c 0.6684369,-0.0056 1.1230055,-0.02156 1.0101526,-0.03557 L 9.0345031,15.967156 V 15.46608 14.965004 H 8.4978596 7.9612161 v 0.505076 0.505076 H 7.4917071 7.0221983 l -0.025464,-0.205187 -0.025464,-0.205187 -0.010104,0.205187 -0.010104,0.205187 h -0.947018 -0.947018 v -0.473509 -0.473509 l 0.4577254,-3.79e-4 c 0.2517489,-2.08e-4 0.6921123,-0.01862 0.9785852,-0.04092 l 0.52086,-0.04055 V 14.482137 14.017986 H 7.5192743 8.0243506 V 13.007833 11.99768 h 0.9709368 0.9709367 l 0.045863,-0.978585 0.04586,-0.978585 h 0.466862 0.466862 v 0.473509 0.473509 h 0.505076 0.505076 V 10.514019 10.04051 h 0.465617 0.465618 l 0.03946,0.197295 c 0.0217,0.108513 0.03946,0.548876 0.03946,0.978586 v 0.781289 h 0.473509 0.473509 l 0.005,0.583995 c 0.0027,0.321197 0.01931,0.548481 0.03683,0.505076 0.02143,-0.0531 0.183875,-0.07892 0.496633,-0.07892 h 0.464789 l 0.02365,0.299889 0.02365,0.299889 0.01138,-0.331456 0.01138,-0.331457 h 0.470853 0.470853 l 0.02152,-0.489292 0.02152,-0.489293 0.01271,0.489293 0.0127,0.489292 h 0.470854 0.470853 l 0.02152,-0.489292 0.02152,-0.489293 0.01271,0.489293 0.01271,0.489292 h 0.473509 0.473509 v 0.536644 0.536644 l 0.994369,0.0045 c 0.546903,0.0025 1.21455,6.48e-4 1.483661,-0.004 l 0.489293,-0.0085 v 0.47752 0.477521 h -0.505076 -0.505077 v 0.505076 0.505076 H 19.48677 19.01672 l -0.02365,-0.299889 -0.02365,-0.299889 -0.01138,0.299889 -0.01138,0.299889 h -1.957171 -1.95717 V 15.47008 14.965004 H 14.49564 13.958997 v 0.505076 0.505076 H 13.488638 13.01828 l -0.02278,-0.363023 -0.02278,-0.363024 -0.01194,0.363024 -0.01194,0.363023 -0.678696,0.0101 c -0.373283,0.0056 -0.586362,0.02156 -0.473509,0.03557 l 0.205187,0.02546 V 16.5158 16.985309 H 9.5080121 7.0141981 Z m 9.0282379,-2.051873 v -0.505076 l -0.52086,0.01271 -0.520859,0.01271 0.489292,0.02152 0.489293,0.02152 v 0.470853 c 0,0.25897 0.0142,0.470854 0.03157,0.470854 0.01736,0 0.03157,-0.227285 0.03157,-0.505077 z"
             id="path420"
             inkscape:connector-curvature="0"
             transform="matrix(0.26458333,0,0,0.26458333,0,289.06248)" />
          <path
             style="fill:#ffffff;stroke-width:0.06313454"
             d="m 7.0141981,16.5118 v -0.473509 l 1.0890707,-0.005 c 0.5989888,-0.0027 1.0535575,-0.01931 1.0101525,-0.03683 -0.053807,-0.02171 -0.078918,-0.190881 -0.078918,-0.531659 V 14.965004 H 8.4978596 7.9612161 v 0.505076 0.505076 h -0.469118 c -0.4362962,0 -0.4710322,-0.0099 -0.4964785,-0.142053 l -0.027361,-0.142052 -0.0086,0.142052 c -0.00851,0.140619 -0.01816,0.142053 -0.9556158,0.142053 h -0.947018 v -0.473509 -0.473509 l 0.3630236,-3.28e-4 c 0.1996629,-1.77e-4 0.6400263,-0.01867 0.9785852,-0.04109 L 7.0141954,14.94596 V 14.481972 14.017986 H 7.5192743 8.0243506 V 13.007833 11.99768 h 0.9785853 0.9785852 l 3.283e-4,-0.363023 c 1.768e-4,-0.199663 0.01867,-0.640026 0.04109,-0.978585 L 10.0637,10.04051 h 0.463987 0.463987 v 0.473509 0.473509 h 0.505076 0.505076 V 10.514019 10.04051 h 0.466146 c 0.565876,0 0.541939,-0.049388 0.543145,1.120638 l 8.62e-4,0.836532 h 0.473509 0.473509 v 0.505077 0.505076 h 0.500883 c 0.497951,0 0.501036,10e-4 0.527184,0.17362 0.01446,0.09549 0.03056,-0.131793 0.03576,-0.505076 l 0.0095,-0.678697 h 0.47005 0.47005 l 0.02365,0.299889 0.02365,0.29989 0.01138,-0.29989 0.01138,-0.299889 h 0.469509 0.469509 l 0.02546,0.205188 0.02546,0.205187 0.0101,-0.205187 0.0101,-0.205188 h 0.473509 0.473509 v 1.010153 1.010153 h 1.483661 1.483662 v 0.473509 0.473509 H 20.461887 19.95681 v 0.505076 0.505076 h -0.469315 c -0.463515,0 -0.46964,-0.0021 -0.495617,-0.17362 l -0.0263,-0.17362 -0.0095,0.17362 -0.0095,0.17362 h -1.957171 -1.95717 V 15.47008 14.965004 H 14.49564 13.958997 v 0.505076 0.505076 h -0.469509 -0.469509 l -0.02546,-0.205187 -0.02546,-0.205187 -0.0101,0.205187 -0.0101,0.205187 -0.583994,0.0073 c -0.321197,0.004 -0.534276,0.02032 -0.473509,0.0362 0.09271,0.02423 0.110485,0.10429 0.110485,0.497753 v 0.46888 H 9.5080121 7.0141981 Z m 9.0282379,-2.08344 v -0.473509 l -0.363023,0.01168 -0.363024,0.01168 0.331457,0.02319 0.331456,0.02319 v 0.438643 c 0,0.241253 0.0142,0.438642 0.03157,0.438642 0.01736,0 0.03157,-0.213079 0.03157,-0.473509 z"
             id="path422"
             inkscape:connector-curvature="0"
             transform="matrix(0.26458333,0,0,0.26458333,0,289.06248)" />
          <path
             style="fill:#ffffff;stroke-width:0.06313454"
             d="m 7.0068744,16.369747 c -0.00403,-0.338559 -0.020316,-0.565843 -0.036197,-0.505076 -0.025871,0.099 -0.1268374,0.110485 -0.9712616,0.110485 H 5.0570275 v -0.46586 -0.465861 l 0.9785853,-0.04586 0.9785853,-0.04586 V 14.484847 14.017986 H 7.5192743 8.0243506 V 13.007833 11.99768 h 0.9785853 0.9785852 v -0.49555 c 0,-0.272553 0.018374,-0.712916 0.040832,-0.978585 l 0.04083,-0.483035 h 0.464245 0.464245 v 0.473509 0.473509 h 0.505076 0.505076 V 10.514019 10.04051 h 0.466146 c 0.565876,0 0.541939,-0.049388 0.543145,1.120638 l 8.62e-4,0.836532 h 0.473509 0.473509 v 0.505077 0.505076 h 0.499815 c 0.340779,0 0.509947,0.02511 0.531659,0.07892 0.01751,0.0434 0.03409,-0.183879 0.03683,-0.505076 l 0.005,-0.583995 h 0.469315 c 0.463515,0 0.469641,0.0021 0.495617,0.17362 l 0.0263,0.17362 0.0095,-0.17362 c 0.0094,-0.172969 0.01122,-0.17362 0.478339,-0.17362 0.393464,0 0.473524,0.01777 0.497752,0.110486 0.0275,0.105224 0.02922,0.105224 0.0362,0 0.0063,-0.09475 0.07475,-0.110486 0.480833,-0.110486 h 0.473509 v 1.010153 1.010153 h 1.483661 1.483662 v 0.473509 0.473509 h -0.505076 -0.505077 v 0.505076 0.505076 h -0.46888 c -0.393463,0 -0.473523,-0.01777 -0.497752,-0.110485 -0.0275,-0.105225 -0.02922,-0.105225 -0.0362,0 -0.0069,0.10355 -0.193296,0.110485 -2.970256,0.110485 h -2.962932 l -0.02736,-0.142053 -0.02736,-0.142052 -0.0086,0.142052 c -0.0081,0.134369 -0.03507,0.142045 -0.49789,0.141905 l -0.489293,-1.45e-4 0.02059,0.505224 0.02059,0.505222 H 9.5128196 7.0141981 Z m 2.0276287,-0.8681 V 14.965004 H 8.4978596 c -0.295154,0 -0.5367103,0.02131 -0.5367918,0.04735 -8.21e-5,0.02604 0.2272027,0.03809 0.5050762,0.02676 l 0.5052246,-0.02059 v 0.509884 c 0,0.280436 0.014205,0.509884 0.031567,0.509884 0.017362,0 0.031567,-0.24149 0.031567,-0.536644 z m 5.9977809,-0.473509 c 0,-0.03818 -0.218391,-0.05849 -0.552427,-0.05137 l -0.552428,0.01176 0.536644,0.03961 c 0.295154,0.02179 0.543746,0.0449 0.552427,0.05137 0.0087,0.0065 0.01578,-0.01665 0.01578,-0.05137 z m 1.010152,-0.631345 v -0.441942 l -0.236754,0.0101 c -0.233099,0.0099 -0.233587,0.0105 -0.03157,0.03557 l 0.205187,0.02546 v 0.406374 c 0,0.223506 0.0142,0.406374 0.03157,0.406374 0.01736,0 0.03157,-0.198873 0.03157,-0.441941 z"
             id="path424"
             inkscape:connector-curvature="0"
             transform="matrix(0.26458333,0,0,0.26458333,0,289.06248)" />
          <path
             style="fill:#ffffff;stroke-width:0.06313454"
             d="M 12.001826,18.500537 V 18.058596 H 11.528317 11.054808 V 17.521952 16.985309 H 10.518165 9.9815211 v 0.505076 0.505076 H 9.5120122 9.0425033 l -0.025463,-0.205187 -0.025464,-0.205187 -0.010104,0.205187 -0.010104,0.205187 H 8.4978596 8.0243506 V 17.490385 16.985309 H 7.52193 7.0195095 l -0.021518,-0.489293 -0.021517,-0.489293 -0.012705,0.489293 -0.012706,0.489293 h -0.473509 -0.473509 v -0.505077 -0.505076 h -0.473509 -0.473509 v -0.463915 -0.463914 l 0.672734,-0.04116 c 0.3700037,-0.02264 0.810367,-0.04116 0.9785853,-0.04116 H 7.0141981 V 14.491495 14.017986 H 7.5192743 8.0243506 V 13.007833 11.99768 h 0.9785853 0.9785852 v -0.590516 c 0,-0.324785 0.018252,-0.765148 0.040561,-0.978586 l 0.04056,-0.388068 h 0.464515 0.464515 v 0.473509 0.473509 h 0.505076 0.505076 V 10.514019 10.04051 h 0.466754 c 0.367378,0 0.474914,0.02126 0.505077,0.09987 0.02108,0.05493 0.03832,0.49529 0.03832,0.978586 v 0.878719 h 0.473509 0.473509 v 0.500438 0.500438 l 0.53679,0.02042 0.536792,0.02042 -1.27e-4,-0.52086 -1.68e-4,-0.52086 h 0.46888 c 0.393463,0 0.473523,0.01777 0.497752,0.110486 0.0275,0.105224 0.02922,0.105224 0.0362,0 0.0063,-0.09464 0.0745,-0.110486 0.475571,-0.110486 0.315525,0 0.478634,0.02574 0.500092,0.07892 0.02548,0.06313 0.03284,0.06313 0.03683,0 0.0035,-0.05568 0.144435,-0.07892 0.478494,-0.07892 h 0.473509 v 1.010153 1.010153 h 1.483661 1.483662 v 0.473509 0.473509 h -0.505076 -0.505077 v 0.505076 0.505076 H 19.48853 c -0.315524,0 -0.478633,-0.02574 -0.500091,-0.07892 -0.02548,-0.06314 -0.03284,-0.06314 -0.03683,0 -0.0039,0.06194 -0.642145,0.07892 -2.967046,0.07892 -2.310576,0 -2.969066,-0.01736 -2.993906,-0.07892 -0.02548,-0.06314 -0.03284,-0.06314 -0.03683,0 -0.0035,0.05568 -0.144434,0.07892 -0.478494,0.07892 h -0.473509 v 0.536644 0.536643 h 0.505076 0.505077 v 0.505076 0.505077 h 0.473509 0.473509 v 0.441941 0.441942 h -0.46888 c -0.393463,0 -0.473524,-0.01777 -0.497752,-0.110485 -0.0275,-0.105225 -0.02922,-0.105225 -0.0362,0 -0.0063,0.09475 -0.07475,0.110485 -0.480833,0.110485 h -0.473509 z m 3.030458,-3.472399 c 0,-0.03764 -0.197604,-0.05854 -0.489293,-0.05176 l -0.489292,0.01137 0.473509,0.04039 c 0.26043,0.02221 0.480611,0.04551 0.489292,0.05176 0.0087,0.0063 0.01578,-0.01704 0.01578,-0.05176 z m 1.010152,-0.662913 c 0,-0.385653 -0.0086,-0.409933 -0.142052,-0.40305 -0.106898,0.0055 -0.11471,0.01447 -0.03157,0.0362 0.08955,0.0234 0.110486,0.09978 0.110486,0.403051 0,0.205798 0.0142,0.374178 0.03157,0.374178 0.01736,0 0.03157,-0.184669 0.03157,-0.410375 z"
             id="path426"
             inkscape:connector-curvature="0"
             transform="matrix(0.26458333,0,0,0.26458333,0,289.06248)" />
          <path
             style="fill:#ffffff;stroke-width:0.06313454"
             d="m 15.032284,16.5118 v -0.473509 h 0.473509 0.473509 v 0.473509 0.473509 h -0.473509 -0.473509 z m 1.010152,0 v -0.473509 h 0.978586 0.978585 v 0.473509 0.473509 h -0.978585 -0.978586 z"
             id="path430"
             inkscape:connector-curvature="0"
             transform="matrix(0.26458333,0,0,0.26458333,0,289.06248)" />
          <path
             style="fill:#ffffff;stroke-width:0.06313454"
             d="M 12.001826,18.500537 V 18.058596 H 11.528317 11.054808 V 17.521952 16.985309 H 10.518165 9.9815211 v 0.505076 0.505076 H 9.5122057 c -0.4635148,0 -0.4696405,-0.0021 -0.4956167,-0.17362 l -0.026301,-0.17362 -0.00946,0.17362 c -0.00943,0.17313 -0.010796,0.17362 -0.4829686,0.17362 H 8.0243506 V 17.490385 16.985309 H 7.522425 7.0204994 l -0.02278,-0.363024 -0.02278,-0.363024 -0.011938,0.363024 -0.011938,0.363024 h -0.473509 -0.473509 v -0.505077 -0.505076 h -0.473509 -0.473509 v -0.464055 -0.464055 l 0.5779099,-0.04102 c 0.3178503,-0.02256 0.7582137,-0.04102 0.9785852,-0.04102 H 7.0141981 V 14.491495 14.017986 H 7.5192743 8.0243506 V 13.007833 11.99768 h 0.9785853 0.9785852 l 5.493e-4,-0.647129 c 3.03e-4,-0.35592 0.018465,-0.796284 0.040362,-0.978585 l 0.03981,-0.331456 h 0.464715 0.464715 v 0.473509 0.473509 h 0.505076 0.505076 V 10.514019 10.04051 h 0.466754 c 0.367378,0 0.474914,0.02126 0.505077,0.09987 0.02108,0.05493 0.03832,0.49529 0.03832,0.978586 v 0.878719 h 0.473509 0.473509 v 0.505077 0.505076 h 0.536643 0.536644 V 12.502757 11.99768 h 0.468248 c 0.315525,0 0.478633,0.02574 0.500092,0.07892 0.02425,0.06009 0.03303,0.06054 0.03683,0.0019 0.0037,-0.05713 0.258089,-0.07706 0.98357,-0.07706 h 0.978585 v 1.008296 1.008296 h 1.483661 1.483662 v 0.473509 0.473509 h -0.505076 -0.505077 v 0.502731 0.502732 l -1.936555,0.0028 c -1.065105,0.0015 -1.950567,0.01679 -1.967693,0.03391 -0.01713,0.01713 0.413961,0.03114 0.95797,0.03114 h 0.989108 v 0.473509 0.473509 H 16.989452 15.9793 V 16.482491 15.9796 l -1.499445,-0.01797 c -0.824695,-0.0099 -1.719627,-0.0097 -1.988738,4.67e-4 l -0.489293,0.01844 v 0.533988 0.533988 h 0.505076 0.505077 v 0.505076 0.505076 h 0.473509 0.473509 v 0.441942 0.441942 h -0.468248 c -0.315525,0 -0.478634,-0.02574 -0.500092,-0.07892 -0.02548,-0.06313 -0.03284,-0.06313 -0.03683,0 -0.0035,0.05568 -0.144434,0.07892 -0.478494,0.07892 h -0.473509 v -0.441942 z m 2.998891,-3.472399 c -0.02146,-0.03472 -0.186499,-0.0585 -0.36675,-0.05284 l -0.32773,0.01029 0.34724,0.04255 c 0.190982,0.0234 0.356019,0.04718 0.366749,0.05284 0.01073,0.0057 0.002,-0.01812 -0.01951,-0.05284 z m 1.041719,-0.726047 c 0,-0.290514 -0.01805,-0.346426 -0.110485,-0.342256 -0.066,0.003 -0.07871,0.0178 -0.03157,0.03683 0.04812,0.01941 0.07892,0.153 0.07892,0.342255 0,0.170727 0.0142,0.310412 0.03157,0.310412 0.01736,0 0.03157,-0.156258 0.03157,-0.34724 z"
             id="path432"
             inkscape:connector-curvature="0"
             transform="matrix(0.26458333,0,0,0.26458333,0,289.06248)" />
          <path
             style="fill:#ffffff;stroke-width:0.06313454"
             d="M 12.001826,18.498681 V 18.058596 H 11.528317 11.054808 V 17.521952 16.985309 H 10.518165 9.9815211 v 0.505076 0.505076 H 9.5124032 c -0.4362962,0 -0.4710322,-0.0099 -0.4964785,-0.142053 l -0.02736,-0.142052 -0.0086,0.142052 c -0.00811,0.133923 -0.035698,0.142053 -0.4821068,0.142053 H 8.0243506 V 17.490385 16.985309 H 7.5230854 7.0218203 L 6.997055,16.748554 6.9722897,16.5118 l -0.010613,0.236754 -0.010613,0.236755 h -0.473509 -0.473509 v -0.505077 -0.505076 h -0.473509 -0.473509 v -0.464245 -0.464245 l 0.4830346,-0.04083 c 0.265669,-0.02246 0.7060324,-0.04083 0.9785853,-0.04083 H 7.0141981 V 14.491495 14.017986 H 7.5192743 8.0243506 V 13.007833 11.99768 h 0.9785853 0.9785852 l 6.951e-4,-0.74183 c 3.852e-4,-0.408007 0.018305,-0.848371 0.039828,-0.978586 l 0.03913,-0.236754 h 0.465248 0.465249 v 0.473509 0.473509 h 0.505076 0.505076 v -0.476165 -0.476164 l 0.489293,0.01844 0.489292,0.01844 0.01743,0.962802 0.01743,0.962801 h 0.471865 0.471865 v 0.505077 0.505076 h 0.536643 0.536644 v -0.502609 -0.50261 l 1.483661,-0.0024 1.483662,-0.0024 v 1.010128 1.010127 h 1.483661 1.483662 v 0.473509 0.473509 h -0.505076 -0.505077 v 0.505076 0.505077 l -1.878252,0.01391 c -1.033039,0.0076 -1.473402,0.02263 -0.978585,0.0333 l 0.899667,0.0194 v 0.471776 0.471775 h -1.483662 -1.483661 v -0.505076 -0.505076 h -1.515229 -1.515229 v 0.536643 0.536644 h 0.505076 0.505077 v 0.505076 0.505076 h 0.473509 0.473509 v 0.440085 0.440085 h -0.978586 -0.978585 v -0.440085 z m 2.826007,-3.513921 c -0.06036,-0.0158 -0.174005,-0.01638 -0.252538,-0.0013 -0.07853,0.0151 -0.02915,0.02803 0.109749,0.02873 0.138896,7e-4 0.203151,-0.01165 0.142789,-0.02746 z m 1.171302,-0.972302 c -0.02827,-0.02833 -0.03771,0.09628 -0.02099,0.2769 l 0.03041,0.328406 0.02099,-0.2769 c 0.01154,-0.152295 -0.0021,-0.300077 -0.03041,-0.328406 z"
             id="path434"
             inkscape:connector-curvature="0"
             transform="matrix(0.26458333,0,0,0.26458333,0,289.06248)" />
          <path
             style="fill:#ffffff;stroke-width:0.06313454"
             d="M 12.001826,18.500537 V 18.058596 H 11.528317 11.054808 V 17.521952 16.985309 H 10.518165 9.9815211 v 0.505076 0.505076 H 9.5126414 c -0.3934632,0 -0.4735237,-0.01777 -0.4977525,-0.110485 -0.027498,-0.105225 -0.029222,-0.105225 -0.036197,0 -0.00628,0.09475 -0.074751,0.110485 -0.4808327,0.110485 H 8.0243506 V 17.490385 16.985309 H 7.5236654 c -0.4690326,0 -0.5024149,-0.009 -0.5280458,-0.142053 l -0.027361,-0.142053 -0.0086,0.142053 c -0.00811,0.133923 -0.035698,0.142053 -0.4821068,0.142053 h -0.473509 v -0.505077 -0.505076 h -0.473509 -0.473509 v -0.464379 -0.46438 l 0.4261581,-0.04025 c 0.234387,-0.02214 0.6747503,-0.04045 0.9785853,-0.0407 l 0.5524272,-4.48e-4 V 14.491495 14.017986 H 7.5192743 8.0243506 V 13.007833 11.99768 h 0.9785853 0.9785852 v -0.781289 c 0,-0.42971 0.017757,-0.870073 0.039459,-0.978586 l 0.03946,-0.197295 h 0.465617 0.465618 v 0.473509 0.473509 h 0.505076 0.505076 v -0.476165 -0.476164 l 0.489293,0.01844 0.489292,0.01844 0.01743,0.962802 0.01743,0.962801 h 0.471865 0.471865 v 0.505077 0.505076 h 0.536643 0.536644 V 12.502757 11.99768 h 1.483661 1.483662 v 1.010153 1.010153 h 1.515229 1.515229 V 13.007833 11.99768 h 0.473509 0.473509 l 0.01271,0.994369 c 0.007,0.546903 0.02239,0.774188 0.03422,0.505077 l 0.02152,-0.489293 h 0.466853 0.466853 l 0.02546,0.205187 0.02546,0.205187 0.0101,-0.205187 0.0101,-0.205187 1.215339,-6.95e-4 c 0.668437,-3.85e-4 1.320748,-0.01812 1.44958,-0.03942 l 0.23424,-0.03872 0.02138,-0.48144 0.02138,-0.48144 0.01271,0.52086 0.01271,0.52086 h 1.483661 1.483662 v 0.473509 0.473509 h -2.73644 c -1.505042,0 -3.081827,0.01857 -3.503967,0.04127 l -0.767526,0.04127 v 0.463807 0.463807 H 20.96693 19.956777 v 0.505076 0.505076 l -1.499445,0.01285 c -0.824695,0.0071 -1.265058,0.02242 -0.978585,0.03412 l 0.52086,0.02127 v 0.470956 0.470956 h -1.483662 -1.483661 v -0.505077 -0.505076 h -1.515229 -1.515229 v 0.536644 0.536643 h 0.505076 0.505077 v 0.505076 0.505077 h 0.473509 0.473509 v 0.441941 0.441942 h -0.978586 -0.978585 z m 4.020996,-4.340499 c -0.01588,-0.06077 -0.02887,-0.01105 -0.02887,0.110486 0,0.121534 0.01299,0.171252 0.02887,0.110485 0.01588,-0.06077 0.01588,-0.160204 0,-0.220971 z"
             id="path436"
             inkscape:connector-curvature="0"
             transform="matrix(0.26458333,0,0,0.26458333,0,289.06248)" />
          <path
             style="fill:#ffffff;stroke-width:0.06313454"
             d="M 12.001826,18.500537 V 18.058596 H 11.528317 11.054808 V 17.521952 16.985309 H 10.518165 9.9815211 v 0.505076 0.505076 H 9.5132733 c -0.3155249,0 -0.478634,-0.02574 -0.5000919,-0.07892 -0.025475,-0.06313 -0.032841,-0.06313 -0.036829,0 -0.00352,0.05568 -0.1444341,0.07892 -0.4784933,0.07892 h -0.473509 v -0.505076 -0.505076 h -0.500447 c -0.4235273,0 -0.5048848,-0.01698 -0.5293198,-0.110486 -0.027498,-0.105224 -0.029222,-0.105224 -0.036197,0 -0.00628,0.09475 -0.074751,0.110486 -0.4808327,0.110486 h -0.473509 v -0.505077 -0.505076 h -0.473509 -0.473509 v -0.464515 -0.464515 l 0.3880685,-0.04056 c 0.2134376,-0.02231 0.653801,-0.04056 0.9785852,-0.04056 H 7.0141981 V 14.491495 14.017986 H 7.5192743 8.0243506 V 13.007833 11.99768 h 0.9785853 0.9785852 l 8.618e-4,-0.836532 C 9.983589,9.9911222 9.959652,10.04051 10.525528,10.04051 h 0.466146 v 0.473509 0.473509 h 0.505076 0.505076 v -0.476165 -0.476164 l 0.489293,0.01844 0.489292,0.01844 0.01743,0.962802 0.01743,0.962801 h 0.471865 0.471865 v 0.505077 0.505076 h 0.536643 0.536644 V 12.502757 11.99768 h 1.483661 1.483662 v 1.010153 1.010153 h 1.515229 1.515229 V 13.007833 11.99768 h 0.473509 0.473509 l 0.01138,0.804966 c 0.0063,0.442731 0.02202,0.670015 0.03503,0.505076 l 0.02365,-0.299889 h 0.465857 c 0.459741,0 0.466201,0.0023 0.492157,0.17362 l 0.0263,0.17362 0.0095,-0.17362 0.0095,-0.17362 0.994368,1.45e-4 0.994369,1.45e-4 -0.02059,-0.505224 -0.02059,-0.505219 h 0.474686 0.474687 l 0.02417,0.268322 0.02417,0.268322 0.01103,-0.268322 0.01103,-0.268322 h 0.473509 0.473509 v 0.470854 0.470853 l -0.489293,0.02152 c -0.269111,0.01183 0.185458,0.02723 1.010153,0.03422 l 1.499445,0.01271 v 0.473509 0.473509 l -3.204078,0.0101 c -1.762242,0.0056 -3.111743,0.02156 -2.99889,0.03557 l 0.205187,0.02546 v 0.469509 0.469509 h -0.470854 -0.470852 l -0.02152,-0.489293 -0.02152,-0.489293 -0.01271,0.489293 -0.01271,0.489293 H 20.96693 19.956777 v 0.505076 0.505076 l -1.183772,0.0101 c -0.651075,0.0056 -1.091438,0.02156 -0.978585,0.03557 l 0.205187,0.02546 v 0.469509 0.469509 H 16.515945 15.032284 V 16.480226 15.97515 h -1.515229 -1.515229 v 0.536644 0.536643 h 0.505076 0.505077 v 0.505076 0.505077 h 0.473509 0.473509 v 0.441941 0.441942 h -0.978586 -0.978585 z"
             id="path438"
             inkscape:connector-curvature="0"
             transform="matrix(0.26458333,0,0,0.26458333,0,289.06248)" />
          <path
             style="fill:#ffffff;stroke-width:0.06313454"
             d="M 12.001826,18.500537 V 18.058596 H 11.528317 11.054808 V 17.521952 16.985309 H 10.518165 9.9815211 v 0.505076 0.505076 H 9.5132733 c -0.3155249,0 -0.478634,-0.02574 -0.5000919,-0.07892 -0.025475,-0.06313 -0.032841,-0.06313 -0.036829,0 -0.00352,0.05568 -0.1444341,0.07892 -0.4784933,0.07892 H 8.0243506 V 17.490385 16.985309 H 7.5245355 c -0.3407787,0 -0.5099475,-0.02511 -0.5316592,-0.07892 -0.025475,-0.06313 -0.032841,-0.06313 -0.036828,0 -0.00352,0.05568 -0.1444341,0.07892 -0.4784933,0.07892 H 6.004046 V 16.480232 15.975156 H 5.530537 5.057028 v -0.464715 -0.464715 l 0.3314563,-0.03981 c 0.182301,-0.0219 0.6226643,-0.04006 0.9785853,-0.04036 l 0.647129,-5.48e-4 V 14.491495 14.017986 H 7.5192743 8.0243506 V 13.007833 11.99768 h 0.9785853 0.9785852 l 8.618e-4,-0.836532 C 9.983589,9.9911222 9.959652,10.04051 10.525528,10.04051 h 0.466146 v 0.473509 0.473509 h 0.505076 0.505076 V 10.514019 10.04051 h 0.505076 0.505077 v 0.978585 0.978585 h 0.473509 0.473509 v 0.505077 0.505076 h 0.536643 0.536644 V 12.502757 11.99768 h 1.483661 1.483662 v 1.010153 1.010153 h 1.515229 1.515229 V 13.007833 11.99768 h 0.473509 0.473509 l 0.0086,0.647129 c 0.0047,0.355921 0.02091,0.583206 0.03596,0.505077 0.02542,-0.131963 0.06036,-0.142053 0.49185,-0.142053 0.389281,0 0.469163,0.01789 0.493361,0.110485 0.0275,0.105225 0.02922,0.105225 0.0362,0 0.0066,-0.100157 0.0988,-0.110485 0.985909,-0.110485 H 25.00754 V 12.502757 11.99768 h 0.469118 c 0.436296,0 0.471032,0.0099 0.496479,0.142053 l 0.02736,0.142053 0.0086,-0.142053 c 0.0081,-0.133923 0.0357,-0.142053 0.482107,-0.142053 h 0.473509 v 0.505077 0.505076 h 1.010152 1.010153 v 0.473509 0.473509 h -2.998891 -2.99889 v 0.505076 0.505077 h -0.470496 -0.470497 l -0.02241,-0.394591 c -0.01233,-0.217025 -0.02789,0.01026 -0.03458,0.505076 l -0.01216,0.899667 h -0.47352 -0.473509 V 15.47008 14.965004 h -0.536644 -0.536644 v 0.505076 0.505076 l -1.057503,0.005 c -0.581627,0.0027 -1.02199,0.01931 -0.978585,0.03683 0.05318,0.02146 0.07892,0.184567 0.07892,0.500092 v 0.468248 h -1.483662 -1.483661 v -0.505077 -0.505076 h -1.515229 -1.515229 v 0.536644 0.536643 h 0.505076 0.505077 v 0.505076 0.505077 h 0.473509 0.473509 v 0.441941 0.441942 h -0.978586 -0.978585 v -0.441942 z"
             id="path440"
             inkscape:connector-curvature="0"
             transform="matrix(0.26458333,0,0,0.26458333,0,289.06248)" />
          <path
             style="fill:#ffffff;stroke-width:0.06313454"
             d="M 12.001826,18.500537 V 18.058596 H 11.528317 11.054808 V 17.521952 16.985309 H 10.518165 9.9815211 v 0.503219 0.50322 H 9.0029359 8.0243506 v -0.50322 -0.503219 l -0.5208599,-0.0045 c -0.286473,-0.0024 -0.7410416,-6.5e-4 -1.0101526,0.004 l -0.4892926,0.0085 v -0.509088 -0.509088 h -0.473509 -0.473509 v -0.464927 -0.464928 l 0.2929172,-0.04015 c 0.1611044,-0.02208 0.6014678,-0.04015 0.9785852,-0.04015 H 7.0141981 V 14.491495 14.017986 H 7.5192743 8.0243506 V 13.007833 11.99768 h 0.9785853 0.9785852 l 8.618e-4,-0.836532 C 9.983589,9.9911222 9.959652,10.04051 10.525528,10.04051 h 0.466146 v 0.473509 0.473509 h 0.505076 0.505076 V 10.514019 10.04051 h 0.505076 0.505077 v 0.978585 0.978585 h 0.473509 0.473509 v 0.505077 0.505076 h 0.536643 0.536644 V 12.502757 11.99768 h 1.483661 1.483662 v 1.010153 1.010153 h 1.515229 1.515229 V 13.007833 11.99768 h 0.473509 0.473509 l 0.005,0.583995 c 0.0027,0.321197 0.01931,0.548481 0.03683,0.505076 0.02141,-0.05307 0.183515,-0.07892 0.494831,-0.07892 0.311316,0 0.473419,0.02585 0.494831,0.07892 0.02548,0.06314 0.03284,0.06314 0.03683,0 0.0038,-0.05953 0.245447,-0.07892 0.983567,-0.07892 H 25.00754 V 12.502757 11.99768 h 0.468248 c 0.315525,0 0.478634,0.02574 0.500092,0.07892 0.02548,0.06313 0.03284,0.06313 0.03683,0 0.0035,-0.05568 0.144434,-0.07892 0.478494,-0.07892 h 0.473509 v 0.505077 0.505076 h 1.010152 1.010153 v 0.473509 0.473509 h -2.998891 -2.99889 v 0.505076 0.505077 h -0.469509 -0.469509 l -0.02546,-0.205188 c -0.014,-0.112853 -0.03001,0.114432 -0.03557,0.505077 l -0.0101,0.710263 H 21.503574 21.030065 V 15.47008 14.965004 h -0.536644 -0.536644 v 0.505076 0.505076 h -0.978585 -0.978585 v 0.505076 0.505077 h -0.505076 -0.505077 v 0.505076 0.505076 H 16.515945 16.042436 V 17.490385 16.985309 H 15.53736 15.032284 v -0.505077 -0.505076 h -1.515229 -1.515229 v 0.536644 0.536643 h 0.505076 0.505077 v 0.505076 0.505077 h 0.473509 0.473509 v 0.441941 0.441942 h -0.978586 -0.978585 z"
             id="path442"
             inkscape:connector-curvature="0"
             transform="matrix(0.26458333,0,0,0.26458333,0,289.06248)" />
          <path
             style="fill:#ffffff;stroke-width:0.06313454"
             d="M 12.001826,18.500537 V 18.058596 H 11.528317 11.054808 V 17.521952 16.985309 H 10.518165 9.9815211 v 0.505076 0.505076 H 9.0029359 8.0243506 V 17.490385 16.985309 H 7.0141981 6.0040455 v -0.505077 -0.505076 h -0.473509 -0.473509 v -0.465248 -0.465249 l 0.2367545,-0.03913 c 0.130215,-0.02152 0.5705784,-0.03944 0.9785853,-0.03983 l 0.7418308,-6.94e-4 v -0.47351 -0.473509 H 7.5192743 8.0243506 V 13.007833 11.99768 h 0.9785853 0.9785852 v -0.878719 c 0,-0.483296 0.017245,-0.92366 0.038322,-0.978586 0.03016,-0.0786 0.137698,-0.09987 0.505076,-0.09987 h 0.466755 v 0.473509 0.473509 h 0.505076 0.505076 V 10.514019 10.04051 h 0.505076 0.505077 v 0.978585 0.978585 h 0.473509 0.473509 v 0.505077 0.505076 h 0.536643 0.536644 V 12.502757 11.99768 h 1.483661 1.483662 v 1.010153 1.010153 h 1.515229 1.515229 V 13.007833 11.99768 h 0.473509 0.473509 v 0.502523 0.502523 l 0.520859,0.01834 c 0.286473,0.01009 0.968326,0.0099 1.515229,-4.61e-4 l 0.994369,-0.0188 V 12.5016 12.001396 h 0.978585 0.978586 v 0.503219 0.503219 h 1.010152 1.010153 v 0.473509 0.473509 h -2.998891 -2.99889 v 0.505077 0.505076 h -0.46888 c -0.393463,0 -0.473523,-0.01777 -0.497752,-0.110486 -0.01588,-0.06077 -0.03217,0.166518 -0.0362,0.505077 l -0.0073,0.615561 H 21.503574 21.030065 V 15.47008 14.965004 h -0.536644 -0.536644 v 0.505076 0.505076 h -0.978585 -0.978585 v 1.010153 1.010152 h -0.470956 -0.470956 l -0.02127,-0.52086 -0.02127,-0.52086 -0.01285,0.52086 -0.01285,0.52086 h -0.47351 -0.473509 V 17.490385 16.985309 H 15.53736 15.032284 v -0.505077 -0.505076 h -1.515229 -1.515229 v 0.536644 0.536643 h 0.505076 0.505077 v 0.505076 0.505077 h 0.473509 0.473509 v 0.441941 0.441942 h -0.978586 -0.978585 z"
             id="path444"
             inkscape:connector-curvature="0"
             transform="matrix(0.26458333,0,0,0.26458333,0,289.06248)" />
          <path
             style="fill:#ffffff;stroke-width:0.06313454"
             d="M 12.001826,18.500537 V 18.058596 H 11.528317 11.054808 V 17.521952 16.985309 H 10.518165 9.9815211 v 0.505076 0.505076 H 9.0029359 8.0243506 V 17.490385 16.985309 H 7.0141981 6.0040455 v -0.505077 -0.505076 h -0.473509 -0.473509 v -0.465248 -0.465249 l 0.2367545,-0.03913 c 0.130215,-0.02152 0.5705784,-0.03944 0.9785853,-0.03983 l 0.7418308,-6.94e-4 v -0.47351 -0.473509 H 7.5192743 8.0243506 V 13.007833 11.99768 h 0.9785853 0.9785852 v -0.878719 c 0,-0.483296 0.017245,-0.92366 0.038322,-0.978586 0.03016,-0.0786 0.137698,-0.09987 0.505076,-0.09987 h 0.466755 v 0.473509 0.473509 h 0.505076 0.505076 V 10.514019 10.04051 h 0.505076 0.505077 v 0.978585 0.978585 h 0.473509 0.473509 v 0.505077 0.505076 h 0.536643 0.536644 V 12.502757 11.99768 h 1.483661 1.483662 v 1.010153 1.010153 h 1.515229 1.515229 V 13.007833 11.99768 h 0.473509 0.473509 v 0.505077 0.505076 h 1.515228 1.515229 V 12.502757 11.99768 h 0.978585 0.978586 v 0.505077 0.505076 h 1.010152 1.010153 v 0.473509 0.473509 h -2.998891 -2.99889 v 0.509884 0.509884 l -0.505225,-0.02059 -0.505224,-0.02059 1.26e-4,0.52086 1.26e-4,0.52086 H 21.503529 21.03002 V 15.47008 14.965004 h -0.536643 -0.536644 v 0.505076 0.505076 h -0.978585 -0.978585 v 1.010153 1.010152 h -0.470359 -0.470358 l -0.02278,-0.363023 -0.02278,-0.363024 -0.01194,0.363024 -0.01189,0.363023 H 16.515945 16.042436 V 17.490385 16.985309 H 15.53736 15.032284 v -0.505077 -0.505076 h -1.515229 -1.515229 v 0.536644 0.536643 h 0.505076 0.505077 v 0.505076 0.505077 h 0.473509 0.473509 v 0.441941 0.441942 h -0.978586 -0.978585 z"
             id="path446"
             inkscape:connector-curvature="0"
             transform="matrix(0.26458333,0,0,0.26458333,0,289.06248)" />
          <path
             style="fill:#ffffff;stroke-width:0.06313454"
             d="M 12.001826,18.500537 V 18.058596 H 11.528317 11.054808 V 17.521952 16.985309 H 10.518165 9.9815211 v 0.505076 0.505076 H 9.0029359 8.0243506 V 17.490385 16.985309 H 7.0141981 6.0040455 v -0.505077 -0.505076 h -0.473509 -0.473509 v -0.465617 -0.465617 l 0.1972954,-0.03946 c 0.1085125,-0.0217 0.5488759,-0.03946 0.9785853,-0.03946 H 7.0141981 V 14.491495 14.017986 H 7.5192743 8.0243506 V 13.007833 11.99768 h 0.9785853 0.9785852 v -0.878719 c 0,-0.483296 0.017245,-0.92366 0.038322,-0.978586 0.03016,-0.0786 0.137698,-0.09987 0.505076,-0.09987 h 0.466755 v 0.473509 0.473509 h 0.505076 0.505076 V 10.514019 10.04051 h 0.505076 0.505077 v 0.978585 0.978585 h 0.473509 0.473509 v 0.505077 0.505076 h 0.536643 0.536644 V 12.502757 11.99768 h 1.483661 1.483662 v 1.010153 1.010153 h 1.515229 1.515229 V 13.007833 11.99768 h 0.473509 0.473509 v 0.50763 0.50763 l 0.520859,-0.01834 0.52086,-0.01834 0.01844,-0.489293 0.01844,-0.489293 h 0.468198 0.468197 l 0.01844,0.489293 0.01844,0.489293 0.489292,0.01844 0.489293,0.01844 V 12.505412 11.99768 h 0.978585 0.978586 v 0.505077 0.505076 h 1.010152 1.010153 v 0.473509 0.473509 h -2.998891 -2.99889 v 0.505076 0.505077 h -0.505076 -0.505076 v 0.505076 0.505076 H 21.503574 21.030065 V 15.47008 14.965004 h -0.536644 -0.536644 v 0.505076 0.505076 h -0.978585 -0.978585 v 1.010153 1.010152 h -0.469509 -0.469509 l -0.02546,-0.205187 -0.02546,-0.205187 -0.0101,0.205187 -0.0101,0.205187 H 16.515945 16.042436 V 17.490385 16.985309 H 15.53736 15.032284 v -0.505077 -0.505076 h -1.515229 -1.515229 v 0.536644 0.536643 h 0.505076 0.505077 v 0.505076 0.505077 h 0.473509 0.473509 v 0.441941 0.441942 h -0.978586 -0.978585 z"
             id="path448"
             inkscape:connector-curvature="0"
             transform="matrix(0.26458333,0,0,0.26458333,0,289.06248)" />
          <path
             style="fill:#ffffff;stroke-width:0.06313454"
             d="M 12.001826,18.500537 V 18.058596 H 11.528317 11.054808 V 17.521952 16.985309 H 10.518165 9.9815211 v 0.505076 0.505076 H 9.0029359 8.0243506 V 17.490385 16.985309 H 7.0141981 6.0040455 v -0.505077 -0.505076 h -0.473509 -0.473509 v -0.465617 -0.465617 l 0.1972954,-0.03946 c 0.1085125,-0.0217 0.5488759,-0.03946 0.9785853,-0.03946 H 7.0141981 V 14.491495 14.017986 H 7.5192743 8.0243506 V 13.007833 11.99768 h 0.9769409 0.9769408 l 0.017428,-0.962801 0.017428,-0.962802 0.489293,-0.01844 0.489293,-0.01844 v 0.476164 0.476165 h 0.505076 0.505076 V 10.514019 10.04051 h 0.505076 0.505077 v 0.978585 0.978585 h 0.473509 0.473509 v 0.505077 0.505076 h 0.536643 0.536644 V 12.502757 11.99768 h 1.483661 1.483662 v 1.010153 1.010153 h 1.515229 1.515229 V 13.007833 11.99768 h 0.473509 0.473509 v 0.505077 0.505076 h 0.536643 0.536644 V 12.502757 11.99768 h 0.473509 0.473509 v 0.505077 0.505076 h 0.505076 0.505076 V 12.502757 11.99768 h 0.978585 0.978586 v 0.505077 0.505076 h 1.010152 1.010153 v 0.473509 0.473509 h -1.888872 c -1.03888,0 -1.933813,0.01725 -1.988738,0.03832 -0.0786,0.03016 -0.09987,0.137698 -0.09987,0.505076 v 0.466755 h -0.473509 c -0.26043,0 -0.494817,-0.0071 -0.52086,-0.01578 -0.02604,-0.0087 -0.04735,-0.236011 -0.04735,-0.505177 V 13.95465 l -0.489292,1.01e-4 -0.489293,10e-5 v 0.505076 0.505077 H 22.482156 21.97708 v 0.505076 0.505076 H 21.503574 21.030065 V 15.47008 14.965004 h -0.536644 -0.536644 v 0.505076 0.505076 h -0.978585 -0.978585 v 1.010153 1.010152 h -0.46888 c -0.393463,0 -0.473524,-0.01777 -0.497752,-0.110485 -0.0275,-0.105225 -0.02922,-0.105225 -0.0362,0 -0.0063,0.09475 -0.07475,0.110485 -0.480833,0.110485 H 16.042436 V 17.490385 16.985309 H 15.53736 15.032284 v -0.505077 -0.505076 h -1.515229 -1.515229 v 0.536644 0.536643 h 0.505076 0.505077 v 0.505076 0.505077 h 0.473509 0.473509 v 0.441941 0.441942 h -0.978586 -0.978585 z"
             id="path450"
             inkscape:connector-curvature="0"
             transform="matrix(0.26458333,0,0,0.26458333,0,289.06248)" />
        </g>
      </g>
    </g>
  </g>
</svg>
