<?xml version="1.0" encoding="utf-8" standalone="no"?>
<!DOCTYPE svg PUBLIC "-//W3C//DTD SVG 1.1//EN"
  "http://www.w3.org/Graphics/SVG/1.1/DTD/svg11.dtd">
<!-- Created with matplotlib (https://matplotlib.org/) -->
<svg height="344.16pt" version="1.1" viewBox="0 0 460.8 344.16" width="460.8pt" xmlns="http://www.w3.org/2000/svg" xmlns:xlink="http://www.w3.org/1999/xlink">
 <defs>
  <style type="text/css">
*{stroke-linecap:butt;stroke-linejoin:round;}
  </style>
 </defs>
 <g id="figure_1">
  <g id="patch_1">
   <path d="M 0 344.16 
L 460.8 344.16 
L 460.8 0 
L 0 0 
z
" style="fill:#ffffff;"/>
  </g>
  <g id="axes_1">
   <g id="patch_2">
    <path d="M 57.6 306.3024 
L 414.72 306.3024 
L 414.72 41.2992 
L 57.6 41.2992 
z
" style="fill:#ffffff;"/>
   </g>
   <g id="matplotlib.axis_1">
    <g id="xtick_1">
     <g id="line2d_1">
      <defs>
       <path d="M 0 0 
L 0 3.5 
" id="mcbedfec54f" style="stroke:#000000;stroke-width:0.8;"/>
      </defs>
      <g>
       <use style="stroke:#000000;stroke-width:0.8;" x="73.832727" xlink:href="#mcbedfec54f" y="306.3024"/>
      </g>
     </g>
     <g id="text_1">
      <!-- $0$ -->
      <defs>
       <path d="M 42 31.84375 
C 42 37.96875 41.90625 48.421875 37.703125 56.453125 
C 34 63.484375 28.09375 66 22.90625 66 
C 18.09375 66 12 63.78125 8.203125 56.5625 
C 4.203125 49.015625 3.796875 39.671875 3.796875 31.84375 
C 3.796875 26.109375 3.90625 17.375 7 9.734375 
C 11.296875 -0.609375 19 -2 22.90625 -2 
C 27.5 -2 34.5 -0.109375 38.59375 9.4375 
C 41.59375 16.375 42 24.5 42 31.84375 
z
M 22.90625 -0.40625 
C 16.5 -0.40625 12.703125 5.125 11.296875 12.75 
C 10.203125 18.6875 10.203125 27.328125 10.203125 32.953125 
C 10.203125 40.6875 10.203125 47.109375 11.5 53.234375 
C 13.40625 61.78125 19 64.390625 22.90625 64.390625 
C 27 64.390625 32.296875 61.671875 34.203125 53.4375 
C 35.5 47.71875 35.59375 40.984375 35.59375 32.953125 
C 35.59375 26.421875 35.59375 18.375 34.40625 12.453125 
C 32.296875 1.5 26.40625 -0.40625 22.90625 -0.40625 
z
" id="CMR17-48"/>
      </defs>
      <g transform="translate(71.34206 320.220898)scale(0.1 -0.1)">
       <use transform="scale(0.996264)" xlink:href="#CMR17-48"/>
      </g>
     </g>
    </g>
    <g id="xtick_2">
     <g id="line2d_2">
      <g>
       <use style="stroke:#000000;stroke-width:0.8;" x="138.763636" xlink:href="#mcbedfec54f" y="306.3024"/>
      </g>
     </g>
     <g id="text_2">
      <!-- $10$ -->
      <defs>
       <path d="M 26.59375 63.796875 
C 26.59375 65.890625 26.5 66 25.09375 66 
C 21.203125 61.359375 15.296875 59.890625 9.703125 59.6875 
C 9.40625 59.6875 8.90625 59.6875 8.796875 59.5 
C 8.703125 59.296875 8.703125 59.09375 8.703125 57 
C 11.796875 57 17 57.59375 21 59.984375 
L 21 7.296875 
C 21 3.796875 20.796875 2.59375 12.203125 2.59375 
L 9.203125 2.59375 
L 9.203125 0 
C 14 0.09375 19 0.1875 23.796875 0.1875 
C 28.59375 0.1875 33.59375 0.09375 38.40625 0 
L 38.40625 2.59375 
L 35.40625 2.59375 
C 26.796875 2.59375 26.59375 3.6875 26.59375 7.296875 
z
" id="CMR17-49"/>
      </defs>
      <g transform="translate(133.782301 320.220898)scale(0.1 -0.1)">
       <use transform="scale(0.996264)" xlink:href="#CMR17-49"/>
       <use transform="translate(45.690477 0)scale(0.996264)" xlink:href="#CMR17-48"/>
      </g>
     </g>
    </g>
    <g id="xtick_3">
     <g id="line2d_3">
      <g>
       <use style="stroke:#000000;stroke-width:0.8;" x="203.694545" xlink:href="#mcbedfec54f" y="306.3024"/>
      </g>
     </g>
     <g id="text_3">
      <!-- $20$ -->
      <defs>
       <path d="M 41.703125 15.46875 
L 39.90625 15.46875 
C 38.90625 8.390625 38.09375 7.1875 37.703125 6.59375 
C 37.203125 5.796875 30 5.796875 28.59375 5.796875 
L 9.40625 5.796875 
C 13 9.6875 20 16.765625 28.5 24.9375 
C 34.59375 30.71875 41.703125 37.5 41.703125 47.390625 
C 41.703125 59.1875 32.296875 66 21.796875 66 
C 10.796875 66 4.09375 56.296875 4.09375 47.296875 
C 4.09375 43.390625 7 42.890625 8.203125 42.890625 
C 9.203125 42.890625 12.203125 43.484375 12.203125 46.984375 
C 12.203125 50.09375 9.59375 51 8.203125 51 
C 7.59375 51 7 50.890625 6.59375 50.6875 
C 8.5 59.1875 14.296875 63.390625 20.40625 63.390625 
C 29.09375 63.390625 34.796875 56.5 34.796875 47.390625 
C 34.796875 38.703125 29.703125 31.21875 24 24.734375 
L 4.09375 2.296875 
L 4.09375 0 
L 39.296875 0 
z
" id="CMR17-50"/>
      </defs>
      <g transform="translate(198.71321 320.220898)scale(0.1 -0.1)">
       <use transform="scale(0.996264)" xlink:href="#CMR17-50"/>
       <use transform="translate(45.690477 0)scale(0.996264)" xlink:href="#CMR17-48"/>
      </g>
     </g>
    </g>
    <g id="xtick_4">
     <g id="line2d_4">
      <g>
       <use style="stroke:#000000;stroke-width:0.8;" x="268.625455" xlink:href="#mcbedfec54f" y="306.3024"/>
      </g>
     </g>
     <g id="text_4">
      <!-- $30$ -->
      <defs>
       <path d="M 22.09375 34 
C 31 34 34.90625 26.140625 34.90625 17.09375 
C 34.90625 5.03125 28.5 0.390625 22.703125 0.390625 
C 17.40625 0.390625 8.796875 3.015625 6.09375 10.796875 
C 6.59375 10.59375 7.09375 10.59375 7.59375 10.59375 
C 10 10.59375 11.796875 12.1875 11.796875 14.796875 
C 11.796875 17.6875 9.59375 19 7.59375 19 
C 5.90625 19 3.296875 18.1875 3.296875 14.484375 
C 3.296875 5.234375 12.296875 -2 22.90625 -2 
C 34 -2 42.5 6.75 42.5 16.984375 
C 42.5 26.84375 34.5 34 25 35.09375 
C 32.59375 36.671875 39.90625 43.375 39.90625 52.390625 
C 39.90625 60.25 32 66 23 66 
C 13.90625 66 5.90625 60.34375 5.90625 52.296875 
C 5.90625 48.796875 8.5 48.1875 9.796875 48.1875 
C 11.90625 48.1875 13.703125 49.484375 13.703125 52.09375 
C 13.703125 54.6875 11.90625 56 9.796875 56 
C 9.40625 56 8.90625 56 8.5 55.796875 
C 11.40625 62.484375 19.296875 63.6875 22.796875 63.6875 
C 26.296875 63.6875 32.90625 61.96875 32.90625 52.296875 
C 32.90625 49.484375 32.5 44.546875 29.09375 40.21875 
C 26.09375 36.390625 22.703125 36.1875 19.40625 35.890625 
C 18.90625 35.890625 16.59375 35.6875 16.203125 35.6875 
C 15.5 35.59375 15.09375 35.5 15.09375 34.796875 
C 15.09375 34.09375 15.203125 34 17.203125 34 
z
" id="CMR17-51"/>
      </defs>
      <g transform="translate(263.644119 320.220898)scale(0.1 -0.1)">
       <use transform="scale(0.996264)" xlink:href="#CMR17-51"/>
       <use transform="translate(45.690477 0)scale(0.996264)" xlink:href="#CMR17-48"/>
      </g>
     </g>
    </g>
    <g id="xtick_5">
     <g id="line2d_5">
      <g>
       <use style="stroke:#000000;stroke-width:0.8;" x="333.556364" xlink:href="#mcbedfec54f" y="306.3024"/>
      </g>
     </g>
     <g id="text_5">
      <!-- $40$ -->
      <defs>
       <path d="M 33.59375 64.796875 
C 33.59375 66.890625 33.5 67 31.703125 67 
L 2 19.59375 
L 2 17 
L 27.796875 17 
L 27.796875 7.1875 
C 27.796875 3.59375 27.59375 2.59375 20.59375 2.59375 
L 18.703125 2.59375 
L 18.703125 0 
C 21.90625 0.1875 27.296875 0.1875 30.703125 0.1875 
C 34.09375 0.1875 39.5 0.1875 42.703125 0 
L 42.703125 2.59375 
L 40.796875 2.59375 
C 33.796875 2.59375 33.59375 3.59375 33.59375 7.1875 
L 33.59375 17 
L 43.796875 17 
L 43.796875 19.59375 
L 33.59375 19.59375 
z
M 28.09375 58.171875 
L 28.09375 19.59375 
L 4 19.59375 
z
" id="CMR17-52"/>
      </defs>
      <g transform="translate(328.575028 320.220898)scale(0.1 -0.1)">
       <use transform="scale(0.996264)" xlink:href="#CMR17-52"/>
       <use transform="translate(45.690477 0)scale(0.996264)" xlink:href="#CMR17-48"/>
      </g>
     </g>
    </g>
    <g id="xtick_6">
     <g id="line2d_6">
      <g>
       <use style="stroke:#000000;stroke-width:0.8;" x="398.487273" xlink:href="#mcbedfec54f" y="306.3024"/>
      </g>
     </g>
     <g id="text_6">
      <!-- $50$ -->
      <defs>
       <path d="M 11.40625 58.59375 
C 12.40625 58.1875 16.5 56.890625 20.703125 56.890625 
C 30 56.890625 35.09375 61.890625 38 64.6875 
C 38 65.484375 38 66 37.40625 66 
C 37.296875 66 37.09375 66 36.296875 65.59375 
C 32.796875 64.09375 28.703125 63 23.703125 63 
C 20.703125 63 16.203125 63.359375 11.296875 65.484375 
C 10.203125 66 10 66 9.90625 66 
C 9.40625 66 9.296875 65.890625 9.296875 63.90625 
L 9.296875 34.859375 
C 9.296875 33.015625 9.296875 32.5 10.296875 32.5 
C 10.796875 32.5 11 32.703125 11.5 33.421875 
C 14.703125 38.046875 19.09375 40 24.09375 40 
C 27.59375 40 35.09375 37.734375 35.09375 20.203125 
C 35.09375 16.984375 35.09375 11.1875 32.09375 6.59375 
C 29.59375 2.484375 25.703125 0.390625 21.40625 0.390625 
C 14.796875 0.390625 8.09375 4.984375 6.296875 12.6875 
C 6.703125 12.59375 7.5 12.390625 7.90625 12.390625 
C 9.203125 12.390625 11.703125 13.09375 11.703125 16.1875 
C 11.703125 18.890625 9.796875 20 7.90625 20 
C 5.59375 20 4.09375 18.59375 4.09375 15.796875 
C 4.09375 7.09375 11 -2 21.59375 -2 
C 31.90625 -2 41.703125 6.890625 41.703125 19.796875 
C 41.703125 32.09375 33.90625 41.59375 24.203125 41.59375 
C 19.09375 41.59375 14.796875 39.6875 11.40625 36 
z
" id="CMR17-53"/>
      </defs>
      <g transform="translate(393.505937 320.220898)scale(0.1 -0.1)">
       <use transform="scale(0.996264)" xlink:href="#CMR17-53"/>
       <use transform="translate(45.690477 0)scale(0.996264)" xlink:href="#CMR17-48"/>
      </g>
     </g>
    </g>
    <g id="text_7">
     <!-- $n$ -->
     <defs>
      <path d="M 20.59375 29.21875 
C 20.796875 29.828125 23.296875 34.8125 27 38 
C 29.59375 40.390625 33 41.984375 36.90625 41.984375 
C 40.90625 41.984375 42.296875 39 42.296875 35.015625 
C 42.296875 29.328125 38.203125 17.953125 36.203125 12.5625 
C 35.296875 10.171875 34.796875 8.875 34.796875 7.078125 
C 34.796875 2.59375 37.90625 -1 42.703125 -1 
C 52 -1 55.5 13.65625 55.5 14.265625 
C 55.5 14.765625 55.09375 15.15625 54.5 15.15625 
C 53.59375 15.15625 53.5 14.859375 53 13.15625 
C 50.703125 4.984375 46.90625 1 43 1 
C 42 1 40.40625 1.09375 40.40625 4.28125 
C 40.40625 6.78125 41.5 9.765625 42.09375 11.171875 
C 44.09375 16.65625 48.296875 27.828125 48.296875 33.515625 
C 48.296875 39.5 44.796875 44 37.203125 44 
C 28.296875 44 23.59375 37.703125 21.796875 35.203125 
C 21.5 40.890625 17.40625 44 13 44 
C 9.796875 44 7.59375 42.09375 5.90625 38.703125 
C 4.09375 35.109375 2.703125 29.125 2.703125 28.71875 
C 2.703125 28.328125 3.09375 27.828125 3.796875 27.828125 
C 4.59375 27.828125 4.703125 27.921875 5.296875 30.21875 
C 6.90625 36.3125 8.703125 41.984375 12.703125 41.984375 
C 15 41.984375 15.796875 40.390625 15.796875 37.40625 
C 15.796875 35.203125 14.796875 31.3125 14.09375 28.234375 
L 11.296875 17.453125 
C 10.90625 15.5625 9.796875 11.0625 9.296875 9.265625 
C 8.59375 6.671875 7.5 1.984375 7.5 1.484375 
C 7.5 0.09375 8.59375 -1 10.09375 -1 
C 11.296875 -1 12.703125 -0.40625 13.5 1.09375 
C 13.703125 1.59375 14.59375 5.078125 15.09375 7.078125 
L 17.296875 16.0625 
z
" id="CMMI12-110"/>
     </defs>
     <g transform="translate(232.666197 334.460257)scale(0.12 -0.12)">
      <use transform="scale(0.996264)" xlink:href="#CMMI12-110"/>
     </g>
    </g>
   </g>
   <g id="matplotlib.axis_2">
    <g id="ytick_1">
     <g id="line2d_7">
      <defs>
       <path d="M 0 0 
L -3.5 0 
" id="m74e426ff72" style="stroke:#000000;stroke-width:0.8;"/>
      </defs>
      <g>
       <use style="stroke:#000000;stroke-width:0.8;" x="57.6" xlink:href="#m74e426ff72" y="294.256866"/>
      </g>
     </g>
     <g id="text_8">
      <!-- $0.0$ -->
      <defs>
       <path d="M 18.40625 4.796875 
C 18.40625 7.6875 16 9.6875 13.59375 9.6875 
C 10.703125 9.6875 8.703125 7.296875 8.703125 4.890625 
C 8.703125 2 11.09375 0 13.5 0 
C 16.40625 0 18.40625 2.390625 18.40625 4.796875 
z
" id="CMMI12-58"/>
      </defs>
      <g transform="translate(37.869921 297.716116)scale(0.1 -0.1)">
       <use transform="scale(0.996264)" xlink:href="#CMR17-48"/>
       <use transform="translate(45.690477 0)scale(0.996264)" xlink:href="#CMMI12-58"/>
       <use transform="translate(72.787654 0)scale(0.996264)" xlink:href="#CMR17-48"/>
      </g>
     </g>
    </g>
    <g id="ytick_2">
     <g id="line2d_8">
      <g>
       <use style="stroke:#000000;stroke-width:0.8;" x="57.6" xlink:href="#m74e426ff72" y="246.074453"/>
      </g>
     </g>
     <g id="text_9">
      <!-- $0.2$ -->
      <g transform="translate(37.869921 249.533702)scale(0.1 -0.1)">
       <use transform="scale(0.996264)" xlink:href="#CMR17-48"/>
       <use transform="translate(45.690477 0)scale(0.996264)" xlink:href="#CMMI12-58"/>
       <use transform="translate(72.787654 0)scale(0.996264)" xlink:href="#CMR17-50"/>
      </g>
     </g>
    </g>
    <g id="ytick_3">
     <g id="line2d_9">
      <g>
       <use style="stroke:#000000;stroke-width:0.8;" x="57.6" xlink:href="#m74e426ff72" y="197.89204"/>
      </g>
     </g>
     <g id="text_10">
      <!-- $0.4$ -->
      <g transform="translate(37.869921 201.351289)scale(0.1 -0.1)">
       <use transform="scale(0.996264)" xlink:href="#CMR17-48"/>
       <use transform="translate(45.690477 0)scale(0.996264)" xlink:href="#CMMI12-58"/>
       <use transform="translate(72.787654 0)scale(0.996264)" xlink:href="#CMR17-52"/>
      </g>
     </g>
    </g>
    <g id="ytick_4">
     <g id="line2d_10">
      <g>
       <use style="stroke:#000000;stroke-width:0.8;" x="57.6" xlink:href="#m74e426ff72" y="149.709627"/>
      </g>
     </g>
     <g id="text_11">
      <!-- $0.6$ -->
      <defs>
       <path d="M 10.59375 34.34375 
C 10.59375 58 21.796875 63.6875 28.296875 63.6875 
C 30.40625 63.6875 35.5 63.265625 37.5 59.09375 
C 35.90625 59.09375 32.90625 59.09375 32.90625 55.59375 
C 32.90625 52.890625 35.09375 52 36.5 52 
C 37.40625 52 40.09375 52.390625 40.09375 55.796875 
C 40.09375 62.296875 35.09375 66 28.203125 66 
C 16.296875 66 3.796875 53.296875 3.796875 31.421875 
C 3.796875 4.015625 15.09375 -2 23.09375 -2 
C 32.796875 -2 42 6.734375 42 20.234375 
C 42 32.828125 33.90625 42 23.703125 42 
C 17.59375 42 13.09375 37.96875 10.59375 30.921875 
z
M 23.09375 0.390625 
C 10.796875 0.390625 10.796875 18.9375 10.796875 22.65625 
C 10.796875 29.90625 14.203125 40.390625 23.5 40.390625 
C 25.203125 40.390625 30.09375 40.390625 33.40625 33.4375 
C 35.203125 29.515625 35.203125 25.375 35.203125 20.34375 
C 35.203125 14.90625 35.203125 10.875 33.09375 6.84375 
C 30.90625 2.703125 27.703125 0.390625 23.09375 0.390625 
z
" id="CMR17-54"/>
      </defs>
      <g transform="translate(37.869921 153.168876)scale(0.1 -0.1)">
       <use transform="scale(0.996264)" xlink:href="#CMR17-48"/>
       <use transform="translate(45.690477 0)scale(0.996264)" xlink:href="#CMMI12-58"/>
       <use transform="translate(72.787654 0)scale(0.996264)" xlink:href="#CMR17-54"/>
      </g>
     </g>
    </g>
    <g id="ytick_5">
     <g id="line2d_11">
      <g>
       <use style="stroke:#000000;stroke-width:0.8;" x="57.6" xlink:href="#m74e426ff72" y="101.527213"/>
      </g>
     </g>
     <g id="text_12">
      <!-- $0.8$ -->
      <defs>
       <path d="M 27.203125 35.765625 
C 33.5 38.96875 39.90625 43.796875 39.90625 51.53125 
C 39.90625 60.6875 31.09375 66 23 66 
C 13.90625 66 5.90625 59.375 5.90625 50.234375 
C 5.90625 47.71875 6.5 43.390625 10.40625 39.578125 
C 11.40625 38.578125 15.59375 35.5625 18.296875 33.65625 
C 13.796875 31.34375 3.296875 25.8125 3.296875 14.765625 
C 3.296875 4.40625 13.09375 -2 22.796875 -2 
C 33.5 -2 42.5 5.71875 42.5 15.96875 
C 42.5 25.109375 36.40625 29.328125 32.40625 32.046875 
z
M 14.09375 44.609375 
C 13.296875 45.109375 9.296875 48.21875 9.296875 52.9375 
C 9.296875 59.078125 15.59375 63.6875 22.796875 63.6875 
C 30.703125 63.6875 36.5 58.0625 36.5 51.53125 
C 36.5 42.1875 26.09375 36.859375 25.59375 36.859375 
C 25.5 36.859375 25.40625 36.859375 24.59375 37.46875 
z
M 32.5 24 
C 34 22.90625 38.796875 19.578125 38.796875 13.453125 
C 38.796875 6.015625 31.40625 0.390625 23 0.390625 
C 13.90625 0.390625 7 6.921875 7 14.859375 
C 7 22.796875 13.09375 29.4375 20 32.546875 
z
" id="CMR17-56"/>
      </defs>
      <g transform="translate(37.869921 104.986462)scale(0.1 -0.1)">
       <use transform="scale(0.996264)" xlink:href="#CMR17-48"/>
       <use transform="translate(45.690477 0)scale(0.996264)" xlink:href="#CMMI12-58"/>
       <use transform="translate(72.787654 0)scale(0.996264)" xlink:href="#CMR17-56"/>
      </g>
     </g>
    </g>
    <g id="ytick_6">
     <g id="line2d_12">
      <g>
       <use style="stroke:#000000;stroke-width:0.8;" x="57.6" xlink:href="#m74e426ff72" y="53.3448"/>
      </g>
     </g>
     <g id="text_13">
      <!-- $1.0$ -->
      <g transform="translate(37.869921 56.804049)scale(0.1 -0.1)">
       <use transform="scale(0.996264)" xlink:href="#CMR17-49"/>
       <use transform="translate(45.690477 0)scale(0.996264)" xlink:href="#CMMI12-58"/>
       <use transform="translate(72.787654 0)scale(0.996264)" xlink:href="#CMR17-48"/>
      </g>
     </g>
    </g>
    <g id="text_14">
     <!-- $\mathbf{P}(k,n)$ -->
     <defs>
      <path d="M 27.59375 31 
L 44.59375 31 
C 61.296875 31 70.59375 39.484375 70.59375 49.75 
C 70.59375 60.5 61.09375 69 44.59375 69 
L 3.796875 69 
L 3.796875 64.6875 
L 14.40625 64.6875 
L 14.40625 4.296875 
L 3.796875 4.296875 
L 3.796875 0 
C 6.703125 0.1875 17.40625 0.1875 21 0.1875 
C 24.59375 0.1875 35.296875 0.1875 38.203125 0 
L 38.203125 4.296875 
L 27.59375 4.296875 
z
M 41 64.6875 
C 56.5 64.6875 56.5 56.515625 56.5 49.75 
C 56.5 43.171875 56.5 34.796875 41 34.796875 
L 27.09375 34.796875 
L 27.09375 64.6875 
z
" id="CMBX12-80"/>
      <path d="M 30.59375 -24.40625 
C 30.59375 -24.3125 30.59375 -24.109375 30.296875 -23.8125 
C 25.703125 -19.109375 13.40625 -6.296875 13.40625 24.9375 
C 13.40625 56.171875 25.5 68.875 30.40625 73.890625 
C 30.40625 73.984375 30.59375 74.1875 30.59375 74.484375 
C 30.59375 74.796875 30.296875 75 29.90625 75 
C 28.796875 75 20.296875 67.578125 15.40625 56.5625 
C 10.40625 45.453125 9 34.65625 9 25.046875 
C 9 17.828125 9.703125 5.625 15.703125 -7.296875 
C 20.5 -17.703125 28.703125 -25 29.90625 -25 
C 30.40625 -25 30.59375 -24.8125 30.59375 -24.40625 
z
" id="CMR17-40"/>
      <path d="M 28.09375 66.484375 
C 28.203125 66.890625 28.40625 67.484375 28.40625 67.984375 
C 28.40625 69 27.40625 69 27.203125 69 
C 27.09375 69 23.5 68.6875 21.703125 68.484375 
C 20 68.390625 18.5 68.1875 16.703125 68.09375 
C 14.296875 67.890625 13.59375 67.796875 13.59375 65.984375 
C 13.59375 64.984375 14.59375 64.984375 15.59375 64.984375 
C 20.703125 64.984375 20.703125 64.109375 20.703125 63.125 
C 20.703125 62.71875 20.703125 62.53125 20.203125 60.75 
L 5.90625 3.90625 
C 5.5 2.390625 5.5 2.203125 5.5 1.59375 
C 5.5 -0.609375 7.203125 -1 8.203125 -1 
C 11 -1 11.59375 1.1875 12.40625 4.296875 
L 17.09375 23.0625 
C 24.296875 22.265625 28.59375 19.25 28.59375 14.4375 
C 28.59375 13.828125 28.59375 13.4375 28.296875 11.921875 
C 27.90625 10.421875 27.90625 9.21875 27.90625 8.71875 
C 27.90625 2.890625 31.703125 -1 36.796875 -1 
C 41.40625 -1 43.796875 3.203125 44.59375 4.609375 
C 46.703125 8.3125 48 13.9375 48 14.328125 
C 48 14.828125 47.59375 15.234375 47 15.234375 
C 46.09375 15.234375 46 14.828125 45.59375 13.234375 
C 44.203125 8.015625 42.09375 1 37 1 
C 35 1 33.703125 2 33.703125 5.8125 
C 33.703125 7.71875 34.09375 9.921875 34.5 11.421875 
C 34.90625 13.234375 34.90625 13.328125 34.90625 14.53125 
C 34.90625 20.453125 29.59375 23.765625 20.40625 24.96875 
C 24 27.171875 27.59375 31.078125 29 32.59375 
C 34.703125 38.984375 38.59375 41.984375 43.203125 41.984375 
C 45.5 41.984375 46.09375 41.484375 46.796875 41 
C 43.09375 40.59375 41.703125 37.984375 41.703125 35.984375 
C 41.703125 33.59375 43.59375 32.796875 45 32.796875 
C 47.703125 32.796875 50.09375 35.09375 50.09375 38.296875 
C 50.09375 41.15625 47.796875 44 43.296875 44 
C 37.796875 44 33.296875 40.296875 26.203125 32.296875 
C 25.203125 31.078125 21.5 27.28125 17.796875 25.875 
z
" id="CMMI12-107"/>
      <path d="M 19.5 -0.40625 
C 19.5 5.390625 17.59375 9.6875 13.5 9.6875 
C 10.296875 9.6875 8.703125 7.09375 8.703125 4.890625 
C 8.703125 2.6875 10.203125 0 13.59375 0 
C 14.90625 0 16 0.390625 16.90625 1.296875 
C 17.09375 1.5 17.203125 1.5 17.296875 1.5 
C 17.5 1.5 17.5 0.09375 17.5 -0.40625 
C 17.5 -3.640625 16.90625 -10.03125 11.09375 -16.421875 
C 10 -17.609375 10 -17.8125 10 -18 
C 10 -18.5 10.5 -19 11 -19 
C 11.796875 -19 19.5 -11.703125 19.5 -0.40625 
z
" id="CMMI12-59"/>
      <path d="M 26.296875 24.9375 
C 26.296875 32.140625 25.59375 44.359375 19.59375 57.265625 
C 14.796875 67.6875 6.59375 75 5.40625 75 
C 5.09375 75 4.703125 74.890625 4.703125 74.390625 
C 4.703125 74.1875 4.796875 74.09375 4.90625 73.890625 
C 9.703125 68.875 21.90625 56.171875 21.90625 25.046875 
C 21.90625 -6.1875 9.796875 -18.90625 4.90625 -23.90625 
C 4.796875 -24.109375 4.703125 -24.203125 4.703125 -24.40625 
C 4.703125 -24.90625 5.09375 -25 5.40625 -25 
C 6.5 -25 15 -17.609375 19.90625 -6.59375 
C 24.90625 4.515625 26.296875 15.328125 26.296875 24.9375 
z
" id="CMR17-41"/>
     </defs>
     <g transform="translate(30.881129 192.307647)rotate(-90)scale(0.12 -0.12)">
      <use transform="scale(0.996264)" xlink:href="#CMBX12-80"/>
      <use transform="translate(76.564811 0)scale(0.996264)" xlink:href="#CMR17-40"/>
      <use transform="translate(111.845578 0)scale(0.996264)" xlink:href="#CMMI12-107"/>
      <use transform="translate(165.924779 0)scale(0.996264)" xlink:href="#CMMI12-59"/>
      <use transform="translate(209.626361 0)scale(0.996264)" xlink:href="#CMMI12-110"/>
      <use transform="translate(267.856409 0)scale(0.996264)" xlink:href="#CMR17-41"/>
     </g>
    </g>
   </g>
   <g id="line2d_13">
    <path clip-path="url(#p1bb72fe038)" d="M 73.832727 53.3448 
L 77.112066 53.3448 
L 80.391405 53.3448 
L 83.670744 53.3448 
L 86.950083 53.3448 
L 90.229421 53.3448 
L 93.50876 53.3448 
L 96.788099 53.3448 
L 100.067438 53.3448 
L 103.346777 53.3448 
L 106.626116 53.3448 
L 109.905455 53.3448 
L 113.184793 53.3448 
L 116.464132 53.3448 
L 119.743471 53.3448 
L 123.02281 53.3448 
L 126.302149 53.3448 
L 129.581488 53.3448 
L 132.860826 53.3448 
L 136.140165 53.3448 
L 139.419504 53.3448 
L 142.698843 53.3448 
L 145.978182 53.3448 
L 149.257521 53.3448 
L 152.53686 53.3448 
L 155.816198 53.3448 
L 159.095537 53.3448 
L 162.374876 53.3448 
L 165.654215 53.3448 
L 168.933554 53.3448 
L 172.212893 53.3448 
L 175.492231 53.3448 
L 178.77157 53.3448 
L 182.050909 53.3448 
L 185.330248 53.3448 
L 188.609587 53.3448 
L 191.888926 53.3448 
L 195.168264 53.3448 
L 198.447603 53.3448 
L 201.726942 53.3448 
L 205.006281 53.3448 
L 208.28562 53.3448 
L 211.564959 53.3448 
L 214.844298 53.3448 
L 218.123636 53.3448 
L 221.402975 53.3448 
L 224.682314 53.3448 
L 227.961653 53.3448 
L 231.240992 53.3448 
L 234.520331 53.3448 
L 237.799669 53.3448 
L 241.079008 53.3448 
L 244.358347 53.3448 
L 247.637686 53.3448 
L 250.917025 53.3448 
L 254.196364 53.3448 
L 257.475702 53.3448 
L 260.755041 53.3448 
L 264.03438 53.3448 
L 267.313719 53.3448 
L 270.593058 53.3448 
L 273.872397 53.3448 
L 277.151736 53.3448 
L 280.431074 53.3448 
L 283.710413 53.3448 
L 286.989752 53.3448 
L 290.269091 53.3448 
L 293.54843 53.3448 
L 296.827769 53.3448 
L 300.107107 53.3448 
L 303.386446 53.3448 
L 306.665785 53.3448 
L 309.945124 53.3448 
L 313.224463 53.3448 
L 316.503802 53.3448 
L 319.78314 53.3448 
L 323.062479 53.3448 
L 326.341818 53.3448 
L 329.621157 53.3448 
L 332.900496 53.3448 
L 336.179835 53.3448 
L 339.459174 53.3448 
L 342.738512 53.3448 
L 346.017851 53.3448 
L 349.29719 53.3448 
L 352.576529 53.3448 
L 355.855868 53.3448 
L 359.135207 53.3448 
L 362.414545 53.3448 
L 365.693884 53.3448 
L 368.973223 53.3448 
L 372.252562 53.3448 
L 375.531901 53.3448 
L 378.81124 53.3448 
L 382.090579 53.3448 
L 385.369917 53.3448 
L 388.649256 53.3448 
L 391.928595 53.3448 
L 395.207934 53.3448 
L 398.487273 53.3448 
" style="fill:none;stroke:#1f77b4;stroke-linecap:square;stroke-width:1.5;"/>
   </g>
   <g id="line2d_14">
    <path clip-path="url(#p1bb72fe038)" d="M 73.832727 173.800833 
L 77.112066 173.800833 
L 80.391405 173.800833 
L 83.670744 173.800833 
L 86.950083 173.800833 
L 90.229421 173.800833 
L 93.50876 173.800833 
L 96.788099 173.800833 
L 100.067438 173.800833 
L 103.346777 173.800833 
L 106.626116 173.800833 
L 109.905455 173.800833 
L 113.184793 173.800833 
L 116.464132 173.800833 
L 119.743471 173.800833 
L 123.02281 173.800833 
L 126.302149 173.800833 
L 129.581488 173.800833 
L 132.860826 173.800833 
L 136.140165 173.800833 
L 139.419504 173.800833 
L 142.698843 173.800833 
L 145.978182 173.800833 
L 149.257521 173.800833 
L 152.53686 173.800833 
L 155.816198 173.800833 
L 159.095537 173.800833 
L 162.374876 173.800833 
L 165.654215 173.800833 
L 168.933554 173.800833 
L 172.212893 173.800833 
L 175.492231 173.800833 
L 178.77157 173.800833 
L 182.050909 173.800833 
L 185.330248 173.800833 
L 188.609587 173.800833 
L 191.888926 173.800833 
L 195.168264 173.800833 
L 198.447603 173.800833 
L 201.726942 173.800833 
L 205.006281 173.800833 
L 208.28562 173.800833 
L 211.564959 173.800833 
L 214.844298 173.800833 
L 218.123636 173.800833 
L 221.402975 173.800833 
L 224.682314 173.800833 
L 227.961653 173.800833 
L 231.240992 173.800833 
L 234.520331 173.800833 
L 237.799669 173.800833 
L 241.079008 173.800833 
L 244.358347 173.800833 
L 247.637686 173.800833 
L 250.917025 173.800833 
L 254.196364 173.800833 
L 257.475702 173.800833 
L 260.755041 173.800833 
L 264.03438 173.800833 
L 267.313719 173.800833 
L 270.593058 173.800833 
L 273.872397 173.800833 
L 277.151736 173.800833 
L 280.431074 173.800833 
L 283.710413 173.800833 
L 286.989752 173.800833 
L 290.269091 173.800833 
L 293.54843 173.800833 
L 296.827769 173.800833 
L 300.107107 173.800833 
L 303.386446 173.800833 
L 306.665785 173.800833 
L 309.945124 173.800833 
L 313.224463 173.800833 
L 316.503802 173.800833 
L 319.78314 173.800833 
L 323.062479 173.800833 
L 326.341818 173.800833 
L 329.621157 173.800833 
L 332.900496 173.800833 
L 336.179835 173.800833 
L 339.459174 173.800833 
L 342.738512 173.800833 
L 346.017851 173.800833 
L 349.29719 173.800833 
L 352.576529 173.800833 
L 355.855868 173.800833 
L 359.135207 173.800833 
L 362.414545 173.800833 
L 365.693884 173.800833 
L 368.973223 173.800833 
L 372.252562 173.800833 
L 375.531901 173.800833 
L 378.81124 173.800833 
L 382.090579 173.800833 
L 385.369917 173.800833 
L 388.649256 173.800833 
L 391.928595 173.800833 
L 395.207934 173.800833 
L 398.487273 173.800833 
" style="fill:none;stroke:#ff7f0e;stroke-linecap:square;stroke-width:1.5;"/>
   </g>
   <g id="line2d_15">
    <path clip-path="url(#p1bb72fe038)" d="M 73.832727 294.2568 
L 77.112066 294.2568 
L 80.391405 294.2568 
L 83.670744 294.2568 
L 86.950083 294.2568 
L 90.229421 294.2568 
L 93.50876 294.2568 
L 96.788099 294.2568 
L 100.067438 294.2568 
L 103.346777 294.2568 
L 106.626116 294.2568 
L 109.905455 294.2568 
L 113.184793 294.2568 
L 116.464132 294.2568 
L 119.743471 294.2568 
L 123.02281 294.2568 
L 126.302149 294.2568 
L 129.581488 294.2568 
L 132.860826 294.2568 
L 136.140165 294.2568 
L 139.419504 294.2568 
L 142.698843 294.2568 
L 145.978182 294.2568 
L 149.257521 294.2568 
L 152.53686 294.2568 
L 155.816198 294.2568 
L 159.095537 294.2568 
L 162.374876 294.2568 
L 165.654215 294.2568 
L 168.933554 294.2568 
L 172.212893 294.2568 
L 175.492231 294.2568 
L 178.77157 294.2568 
L 182.050909 294.2568 
L 185.330248 294.2568 
L 188.609587 294.2568 
L 191.888926 294.2568 
L 195.168264 294.2568 
L 198.447603 294.2568 
L 201.726942 294.2568 
L 205.006281 294.2568 
L 208.28562 294.2568 
L 211.564959 294.2568 
L 214.844298 294.2568 
L 218.123636 294.2568 
L 221.402975 294.2568 
L 224.682314 294.2568 
L 227.961653 294.2568 
L 231.240992 294.2568 
L 234.520331 294.2568 
L 237.799669 294.2568 
L 241.079008 294.2568 
L 244.358347 294.2568 
L 247.637686 294.2568 
L 250.917025 294.2568 
L 254.196364 294.2568 
L 257.475702 294.2568 
L 260.755041 294.2568 
L 264.03438 294.2568 
L 267.313719 294.2568 
L 270.593058 294.2568 
L 273.872397 294.2568 
L 277.151736 294.2568 
L 280.431074 294.2568 
L 283.710413 294.2568 
L 286.989752 294.2568 
L 290.269091 294.2568 
L 293.54843 294.2568 
L 296.827769 294.2568 
L 300.107107 294.2568 
L 303.386446 294.2568 
L 306.665785 294.2568 
L 309.945124 294.2568 
L 313.224463 294.2568 
L 316.503802 294.2568 
L 319.78314 294.2568 
L 323.062479 294.2568 
L 326.341818 294.2568 
L 329.621157 294.2568 
L 332.900496 294.2568 
L 336.179835 294.2568 
L 339.459174 294.2568 
L 342.738512 294.2568 
L 346.017851 294.2568 
L 349.29719 294.2568 
L 352.576529 294.2568 
L 355.855868 294.2568 
L 359.135207 294.2568 
L 362.414545 294.2568 
L 365.693884 294.2568 
L 368.973223 294.2568 
L 372.252562 294.2568 
L 375.531901 294.2568 
L 378.81124 294.2568 
L 382.090579 294.2568 
L 385.369917 294.2568 
L 388.649256 294.2568 
L 391.928595 294.2568 
L 395.207934 294.2568 
L 398.487273 294.2568 
" style="fill:none;stroke:#2ca02c;stroke-linecap:square;stroke-width:1.5;"/>
   </g>
   <g id="patch_3">
    <path d="M 57.6 306.3024 
L 57.6 41.2992 
" style="fill:none;stroke:#000000;stroke-linecap:square;stroke-linejoin:miter;stroke-width:0.8;"/>
   </g>
   <g id="patch_4">
    <path d="M 414.72 306.3024 
L 414.72 41.2992 
" style="fill:none;stroke:#000000;stroke-linecap:square;stroke-linejoin:miter;stroke-width:0.8;"/>
   </g>
   <g id="patch_5">
    <path d="M 57.6 306.3024 
L 414.72 306.3024 
" style="fill:none;stroke:#000000;stroke-linecap:square;stroke-linejoin:miter;stroke-width:0.8;"/>
   </g>
   <g id="patch_6">
    <path d="M 57.6 41.2992 
L 414.72 41.2992 
" style="fill:none;stroke:#000000;stroke-linecap:square;stroke-linejoin:miter;stroke-width:0.8;"/>
   </g>
   <g id="text_15">
    <!-- Variando n en $\displaystyle\mathbf{P}(k,n)=\frac{1}{k!}\sum_{j=0}^{n-k}\frac{(-1)^{j}}{j!}$ -->
    <defs>
     <path d="M 59 58.78125 
C 59.90625 60.984375 61.5 65.296875 68.203125 65.390625 
L 68.203125 68 
C 65.90625 67.796875 63.296875 67.796875 60.796875 67.796875 
C 58.40625 67.796875 54.296875 67.796875 52 68 
L 52 65.390625 
C 57 65.09375 57.203125 61.59375 57.203125 60.984375 
C 57.203125 59.890625 56.90625 59.1875 56.59375 58.390625 
L 36.90625 7 
L 16.296875 60.984375 
C 16 61.6875 15.796875 62.1875 15.796875 62.6875 
C 15.796875 65.390625 19.796875 65.390625 21.90625 65.390625 
L 21.90625 68 
C 18.703125 67.796875 14 67.796875 10.703125 67.796875 
C 8.09375 67.796875 3.40625 67.796875 1 68 
L 1 65.390625 
C 6.796875 65.390625 7.90625 65 9.09375 61.796875 
L 32.90625 -0.40625 
C 33.40625 -1.8125 33.5 -2 34.59375 -2 
C 35.703125 -2 35.796875 -1.8125 36.296875 -0.40625 
z
" id="CMR17-86"/>
     <path d="M 36 25.875 
C 36 32 36 35.546875 31.796875 39.59375 
C 28.09375 42.984375 23.796875 44 20.40625 44 
C 12.5 44 6.796875 37.625 6.796875 30.890625 
C 6.796875 27.1875 9.796875 27 10.40625 27 
C 11.703125 27 14 27.796875 14 30.59375 
C 14 33.09375 12.09375 34.1875 10.40625 34.1875 
C 10 34.1875 9.5 34.09375 9.203125 34 
C 11.296875 40.53125 16.703125 42.390625 20.203125 42.390625 
C 25.203125 42.390625 30.703125 37.828125 30.703125 29.296875 
L 30.703125 25.5 
C 24.796875 25.296875 17.703125 24.5 12.09375 21.453125 
C 5.796875 17.921875 4 12.84375 4 9 
C 4 1.203125 13 -1 18.296875 -1 
C 23.796875 -1 28.90625 2.109375 31.09375 7.890625 
C 31.296875 3.421875 34.09375 -0.609375 38.5 -0.609375 
C 40.59375 -0.609375 45.90625 0.796875 45.90625 8.796875 
L 45.90625 14.46875 
L 44.09375 14.46875 
L 44.09375 8.703125 
C 44.09375 2.515625 41.40625 1.703125 40.09375 1.703125 
C 36 1.703125 36 6.96875 36 11.4375 
z
M 30.703125 13.859375 
C 30.703125 5.046875 24.5 0.59375 19 0.59375 
C 14 0.59375 10.09375 4.34375 10.09375 9 
C 10.09375 12.046875 11.40625 17.40625 17.203125 20.65625 
C 22 23.390625 27.5 23.796875 30.703125 24 
z
" id="CMR17-97"/>
     <path d="M 15 23.703125 
C 15 33.34375 19.09375 42.390625 26.59375 42.390625 
C 27.296875 42.390625 28 42.296875 28.703125 41.984375 
C 28.703125 41.984375 26.5 41.28125 26.5 38.671875 
C 26.5 36.265625 28.40625 35.265625 29.90625 35.265625 
C 31.09375 35.265625 33.296875 35.96875 33.296875 38.78125 
C 33.296875 41.984375 30.09375 44 26.703125 44 
C 19.09375 44 15.796875 36.5625 14.796875 33.046875 
L 14.703125 33.046875 
L 14.703125 44 
L 3.09375 42.890625 
L 3.09375 40.28125 
C 9 40.28125 9.90625 39.6875 9.90625 34.859375 
L 9.90625 6.921875 
C 9.90625 3.09375 9.5 2.59375 3.09375 2.59375 
L 3.09375 0 
C 5.5 0.1875 10.09375 0.1875 12.703125 0.1875 
C 15.59375 0.1875 20.703125 0.1875 23.40625 0 
L 23.40625 2.59375 
C 16.203125 2.59375 15 2.59375 15 7.109375 
z
" id="CMR17-114"/>
     <path d="M 15.5 61.890625 
C 15.5 64.09375 13.703125 66 11.40625 66 
C 9.203125 66 7.296875 64.1875 7.296875 61.890625 
C 7.296875 59.6875 9.09375 57.796875 11.40625 57.796875 
C 13.59375 57.796875 15.5 59.59375 15.5 61.890625 
z
M 3.796875 42.890625 
L 3.796875 40.296875 
C 9.40625 40.296875 10.203125 39.6875 10.203125 34.859375 
L 10.203125 6.921875 
C 10.203125 3.09375 9.796875 2.59375 3.40625 2.59375 
L 3.40625 0 
C 5.796875 0.1875 10.09375 0.1875 12.59375 0.1875 
C 15 0.1875 19.09375 0.1875 21.40625 0 
L 21.40625 2.59375 
C 15.5 2.59375 15.296875 3.203125 15.296875 6.8125 
L 15.296875 44 
z
" id="CMR17-105"/>
     <path d="M 41.5 30.53125 
C 41.5 35.65625 40.5 44 28.703125 44 
C 20.796875 44 16.703125 37.875 15.203125 33.84375 
L 15.09375 33.84375 
L 15.09375 44 
L 3.296875 42.890625 
L 3.296875 40.28125 
C 9.203125 40.28125 10.09375 39.6875 10.09375 34.859375 
L 10.09375 6.921875 
C 10.09375 3.09375 9.703125 2.59375 3.296875 2.59375 
L 3.296875 0 
C 5.703125 0.1875 10.09375 0.1875 12.703125 0.1875 
C 15.296875 0.1875 19.796875 0.1875 22.203125 0 
L 22.203125 2.59375 
C 15.796875 2.59375 15.40625 3 15.40625 6.921875 
L 15.40625 26.21875 
C 15.40625 35.453125 21 42.390625 28 42.390625 
C 35.40625 42.390625 36.203125 35.765625 36.203125 30.9375 
L 36.203125 6.921875 
C 36.203125 3.09375 35.796875 2.59375 29.40625 2.59375 
L 29.40625 0 
C 31.796875 0.1875 36.203125 0.1875 38.796875 0.1875 
C 41.40625 0.1875 45.90625 0.1875 48.296875 0 
L 48.296875 2.59375 
C 41.90625 2.59375 41.5 3 41.5 6.921875 
z
" id="CMR17-110"/>
     <path d="M 29.203125 67.890625 
L 29.203125 65.296875 
C 35.09375 65.296875 36 64.703125 36 60.046875 
L 36 37.046875 
C 35.59375 37.546875 31.5 44 23.40625 44 
C 13.203125 44 3.296875 34.8125 3.296875 21.5 
C 3.296875 8.265625 12.59375 -1 22.40625 -1 
C 30.90625 -1 35.296875 5.640625 35.796875 6.34375 
L 35.796875 -1 
L 47.90625 -0.203125 
L 47.90625 2.40625 
C 42 2.40625 41.09375 3.015625 41.09375 7.859375 
L 41.09375 69 
z
M 35.796875 11.90625 
C 35.796875 8.875 34 6.140625 31.703125 4.125 
C 28.296875 1.09375 24.90625 0.59375 23 0.59375 
C 20.09375 0.59375 9.703125 2.109375 9.703125 21.390625 
C 9.703125 41.1875 21.296875 42.390625 23.90625 42.390625 
C 28.5 42.390625 32.203125 39.765625 34.5 36.140625 
C 35.796875 34.015625 35.796875 33.703125 35.796875 31.890625 
z
" id="CMR17-100"/>
     <path d="M 43.09375 21.1875 
C 43.09375 34 33.796875 44 22.90625 44 
C 12 44 2.703125 34 2.703125 21.1875 
C 2.703125 8.59375 12 -1 22.90625 -1 
C 33.796875 -1 43.09375 8.59375 43.09375 21.1875 
z
M 22.90625 0.796875 
C 18.203125 0.796875 14.203125 3.59375 11.90625 7.5 
C 9.40625 12 9.09375 17.59375 9.09375 22 
C 9.09375 26.1875 9.296875 31.390625 11.90625 35.890625 
C 13.90625 39.1875 17.796875 42.390625 22.90625 42.390625 
C 27.40625 42.390625 31.203125 39.890625 33.59375 36.390625 
C 36.703125 31.6875 36.703125 25.09375 36.703125 22 
C 36.703125 18.09375 36.5 12.09375 33.796875 7.296875 
C 31 2.6875 26.703125 0.796875 22.90625 0.796875 
z
" id="CMR17-111"/>
     <path d="M 38.09375 23.484375 
C 38.5 23.890625 38.5 24.09375 38.5 25.09375 
C 38.5 35.171875 33.09375 44 21.703125 44 
C 11.09375 44 2.703125 33.984375 2.703125 21.78125 
C 2.703125 8.65625 12.203125 -1 22.796875 -1 
C 34 -1 38.40625 9.671875 38.40625 11.796875 
C 38.40625 12.5 37.796875 12.5 37.59375 12.5 
C 36.90625 12.5 36.796875 12.296875 36.40625 11.078125 
C 34.203125 4.21875 28.703125 0.796875 23.5 0.796875 
C 19.203125 0.796875 14.90625 3.21875 12.203125 7.65625 
C 9.09375 12.796875 9.09375 18.75 9.09375 23.484375 
z
M 9.203125 25 
C 9.90625 39.234375 17.59375 42.390625 21.59375 42.390625 
C 28.40625 42.390625 33 36.0625 33.09375 25 
z
" id="CMR17-101"/>
     <path d="M 64.296875 32 
C 65.796875 32 67.296875 32 67.296875 33.6875 
C 67.296875 35.5 65.59375 35.5 63.90625 35.5 
L 8 35.5 
C 6.296875 35.5 4.59375 35.5 4.59375 33.6875 
C 4.59375 32 6.09375 32 7.59375 32 
z
M 63.90625 14.484375 
C 65.59375 14.484375 67.296875 14.484375 67.296875 16.296875 
C 67.296875 18 65.796875 18 64.296875 18 
L 7.59375 18 
C 6.09375 18 4.59375 18 4.59375 16.296875 
C 4.59375 14.484375 6.296875 14.484375 8 14.484375 
z
" id="CMR17-61"/>
     <path d="M 16.59375 67 
C 16.59375 69.890625 14.203125 71 12.5 71 
C 10.796875 71 8.40625 69.890625 8.40625 67 
L 11.5 18.6875 
C 11.59375 17.390625 11.59375 16.890625 12.5 16.890625 
C 13.40625 16.890625 13.40625 17.390625 13.5 18.6875 
z
M 16.59375 4.09375 
C 16.59375 6.296875 14.796875 8.1875 12.5 8.1875 
C 10.296875 8.1875 8.40625 6.390625 8.40625 4.09375 
C 8.40625 1.890625 10.203125 0 12.5 0 
C 14.703125 0 16.59375 1.796875 16.59375 4.09375 
z
" id="CMR17-33"/>
     <path d="M 65.90625 23 
C 67.59375 23 69.40625 23 69.40625 25 
C 69.40625 27 67.59375 27 65.90625 27 
L 11.796875 27 
C 10.09375 27 8.296875 27 8.296875 25 
C 8.296875 23 10.09375 23 11.796875 23 
z
" id="CMSY10-0"/>
     <path d="M 126.59375 -140 
L 138.703125 -108 
L 136.203125 -108 
C 132.296875 -118.40625 121.703125 -125.203125 110.203125 -128.203125 
C 108.09375 -128.703125 98.296875 -131.3125 79.09375 -131.3125 
L 18.796875 -131.3125 
L 69.703125 -71.609375 
C 70.40625 -70.796875 70.59375 -70.5 70.59375 -70 
C 70.59375 -69.796875 70.59375 -69.5 69.90625 -68.5 
L 23.296875 -4.8125 
L 78.09375 -4.8125 
C 91.5 -4.8125 100.59375 -6.203125 101.5 -6.40625 
C 106.90625 -7.203125 115.59375 -8.90625 123.5 -13.90625 
C 126 -15.5 132.796875 -20 136.203125 -28.09375 
L 138.703125 -28.09375 
L 126.59375 0 
L 8.40625 0 
C 6.09375 0 6 -0.109375 5.703125 -0.703125 
C 5.59375 -1.015625 5.59375 -2.90625 5.59375 -4.015625 
L 58.5 -76.40625 
L 6.703125 -137.109375 
C 5.703125 -138.3125 5.703125 -138.8125 5.703125 -138.90625 
C 5.703125 -140 6.59375 -140 8.40625 -140 
z
" id="CMEX10-88"/>
     <path d="M 35 31.671875 
C 35.40625 33.265625 35.40625 34.65625 35.40625 35.046875 
C 35.40625 40.796875 31.09375 44 26.59375 44 
C 16.5 44 11.09375 29.5 11.09375 28.796875 
C 11.09375 28.296875 11.5 27.90625 12.09375 27.90625 
C 12.90625 27.90625 13 28.296875 13.5 29.296875 
C 17.5 38.921875 22.5 41.984375 26.296875 41.984375 
C 28.40625 41.984375 29.5 40.890625 29.5 37.421875 
C 29.5 35.046875 29.203125 34.0625 28.796875 32.265625 
L 19.296875 -5.109375 
C 17.40625 -12.453125 12.703125 -18 7.203125 -18 
C 6.796875 -18 4.703125 -18 2.796875 -17.015625 
C 5.203125 -16.515625 7.09375 -14.640625 7.09375 -12.25 
C 7.09375 -10.671875 5.90625 -9.078125 3.703125 -9.078125 
C 1.09375 -9.078125 -1.296875 -11.265625 -1.296875 -14.234375 
C -1.296875 -18.3125 3.09375 -20 7.203125 -20 
C 14.09375 -20 23.203125 -14.9375 25.703125 -5.015625 
z
M 39.09375 62.6875 
C 39.09375 65.1875 37 66 35.796875 66 
C 33.09375 66 30.796875 63.390625 30.796875 61.1875 
C 30.796875 59.6875 32 57.890625 34.203125 57.890625 
C 36.5 57.890625 39.09375 60.09375 39.09375 62.6875 
z
" id="CMMI12-106"/>
    </defs>
    <g transform="translate(140.127832 35.2992)scale(0.12 -0.12)">
     <use transform="translate(0 117.119274)scale(0.996264)" xlink:href="#CMR17-86"/>
     <use transform="translate(61.265174 117.119274)scale(0.996264)" xlink:href="#CMR17-97"/>
     <use transform="translate(106.955652 117.119274)scale(0.996264)" xlink:href="#CMR17-114"/>
     <use transform="translate(142.236419 117.119274)scale(0.996264)" xlink:href="#CMR17-105"/>
     <use transform="translate(167.107478 117.119274)scale(0.996264)" xlink:href="#CMR17-97"/>
     <use transform="translate(212.797955 117.119274)scale(0.996264)" xlink:href="#CMR17-110"/>
     <use transform="translate(263.693325 117.119274)scale(0.996264)" xlink:href="#CMR17-100"/>
     <use transform="translate(314.588694 117.119274)scale(0.996264)" xlink:href="#CMR17-111"/>
     <use transform="translate(390.355138 117.119274)scale(0.996264)" xlink:href="#CMR17-110"/>
     <use transform="translate(471.326474 117.119274)scale(0.996264)" xlink:href="#CMR17-101"/>
     <use transform="translate(511.812135 117.119274)scale(0.996264)" xlink:href="#CMR17-110"/>
     <use transform="translate(592.783471 117.119274)scale(0.996264)" xlink:href="#CMBX12-80"/>
     <use transform="translate(669.348281 117.119274)scale(0.996264)" xlink:href="#CMR17-40"/>
     <use transform="translate(704.629049 117.119274)scale(0.996264)" xlink:href="#CMMI12-107"/>
     <use transform="translate(758.70825 117.119274)scale(0.996264)" xlink:href="#CMMI12-59"/>
     <use transform="translate(802.409832 117.119274)scale(0.996264)" xlink:href="#CMMI12-110"/>
     <use transform="translate(860.63988 117.119274)scale(0.996264)" xlink:href="#CMR17-41"/>
     <use transform="translate(923.594656 117.119274)scale(0.996264)" xlink:href="#CMR17-61"/>
     <use transform="translate(1040.808866 184.517319)scale(0.996264)" xlink:href="#CMR17-49"/>
     <use transform="translate(1024.178967 48.780437)scale(0.996264)" xlink:href="#CMMI12-107"/>
     <use transform="translate(1078.258168 48.780437)scale(0.996264)" xlink:href="#CMR17-33"/>
     <use transform="translate(1126.453199 241.652914)scale(0.697382)" xlink:href="#CMMI12-110"/>
     <use transform="translate(1167.214042 241.652914)scale(0.697382)" xlink:href="#CMSY10-0"/>
     <use transform="translate(1221.455036 241.652914)scale(0.697382)" xlink:href="#CMMI12-107"/>
     <use transform="translate(1120.929145 211.764903)scale(0.996264)" xlink:href="#CMEX10-88"/>
     <use transform="translate(1135.703301 0)scale(0.697382)" xlink:href="#CMMI12-106"/>
     <use transform="translate(1167.876886 0)scale(0.697382)" xlink:href="#CMR17-61"/>
     <use transform="translate(1218.077017 0)scale(0.697382)" xlink:href="#CMR17-48"/>
     <use transform="translate(1282.634259 184.517319)scale(0.996264)" xlink:href="#CMR17-40"/>
     <use transform="translate(1317.915027 184.517319)scale(0.996264)" xlink:href="#CMSY10-0"/>
     <use transform="translate(1395.402495 184.517319)scale(0.996264)" xlink:href="#CMR17-49"/>
     <use transform="translate(1441.092972 184.517319)scale(0.996264)" xlink:href="#CMR17-41"/>
     <use transform="translate(1476.373739 220.670958)scale(0.697382)" xlink:href="#CMMI12-106"/>
     <use transform="translate(1360.423087 48.780437)scale(0.996264)" xlink:href="#CMMI12-106"/>
     <use transform="translate(1406.385569 48.780437)scale(0.996264)" xlink:href="#CMR17-33"/>
     <path d="M 1024.178967 140.033407 
L 1103.129226 140.033407 
L 1103.129226 144.018357 
L 1024.178967 144.018357 
L 1024.178967 140.033407 
z
"/>
     <path d="M 1282.634259 140.033407 
L 1509.045456 140.033407 
L 1509.045456 144.018357 
L 1282.634259 144.018357 
L 1282.634259 140.033407 
z
"/>
    </g>
   </g>
   <g id="legend_1">
    <g id="patch_7">
     <path d="M 319.038502 277.707527 
L 374.008 277.707527 
Q 376.008 277.707527 376.008 275.707527 
L 376.008 234.895993 
Q 376.008 232.895993 374.008 232.895993 
L 319.038502 232.895993 
Q 317.038502 232.895993 317.038502 234.895993 
L 317.038502 275.707527 
Q 317.038502 277.707527 319.038502 277.707527 
z
" style="fill:#4c4c4c;opacity:0.5;stroke:#4c4c4c;stroke-linejoin:miter;"/>
    </g>
    <g id="patch_8">
     <path d="M 317.038502 275.707527 
L 372.008 275.707527 
Q 374.008 275.707527 374.008 273.707527 
L 374.008 232.895993 
Q 374.008 230.895993 372.008 230.895993 
L 317.038502 230.895993 
Q 315.038502 230.895993 315.038502 232.895993 
L 315.038502 273.707527 
Q 315.038502 275.707527 317.038502 275.707527 
z
" style="fill:#ffffff;stroke:#cccccc;stroke-linejoin:miter;"/>
    </g>
    <g id="line2d_16">
     <path d="M 319.038502 238.395993 
L 339.038502 238.395993 
" style="fill:none;stroke:#1f77b4;stroke-linecap:square;stroke-width:1.5;"/>
    </g>
    <g id="line2d_17"/>
    <g id="text_16">
     <!-- k=1 -->
     <defs>
      <path d="M 26.09375 26.234375 
C 26 26.4375 25.5 27.03125 25.5 27.328125 
C 25.5 27.53125 32.59375 33.984375 33.5 34.78125 
C 39.203125 39.5625 42.796875 40.046875 45.40625 40.15625 
L 45.40625 42.734375 
C 44.796875 42.734375 44.59375 42.734375 44.5 42.640625 
L 39.59375 42.53125 
C 36.796875 42.53125 32.5 42.53125 29.796875 42.734375 
L 29.796875 40.15625 
C 31.203125 40.046875 32.203125 39.265625 32.203125 37.859375 
C 32.203125 35.875 30.203125 33.984375 30.09375 33.984375 
L 15 20.28125 
L 15 69 
L 3.09375 67.890625 
L 3.09375 65.296875 
C 9 65.296875 9.90625 64.703125 9.90625 59.921875 
L 9.90625 6.859375 
C 9.90625 3.09375 9.5 2.59375 3.09375 2.59375 
L 3.09375 0 
C 5.5 0.1875 9.90625 0.1875 12.40625 0.1875 
C 14.90625 0.1875 19.296875 0.1875 21.703125 0 
L 21.703125 2.59375 
C 15.296875 2.59375 14.90625 2.984375 14.90625 6.859375 
L 14.90625 17.796875 
L 21.796875 24.0625 
L 31.90625 9.15625 
C 33.09375 7.359375 34.09375 5.96875 34.09375 4.671875 
C 34.09375 2.890625 32.296875 2.59375 31.09375 2.59375 
L 31.09375 0 
C 33.5 0.1875 37.796875 0.1875 40.296875 0.1875 
C 42.09375 0.1875 45.796875 0.09375 47.5 0 
L 47.5 2.59375 
C 42.796875 2.59375 41.703125 3.484375 38.703125 7.859375 
z
" id="CMR17-107"/>
     </defs>
     <g transform="translate(347.038502 241.895993)scale(0.1 -0.1)">
      <use transform="scale(0.996264)" xlink:href="#CMR17-107"/>
      <use transform="translate(48.292916 0)scale(0.996264)" xlink:href="#CMR17-61"/>
      <use transform="translate(120.007704 0)scale(0.996264)" xlink:href="#CMR17-49"/>
     </g>
    </g>
    <g id="line2d_18">
     <path d="M 319.038502 252.333171 
L 339.038502 252.333171 
" style="fill:none;stroke:#ff7f0e;stroke-linecap:square;stroke-width:1.5;"/>
    </g>
    <g id="line2d_19"/>
    <g id="text_17">
     <!-- k=2 -->
     <g transform="translate(347.038502 255.833171)scale(0.1 -0.1)">
      <use transform="scale(0.996264)" xlink:href="#CMR17-107"/>
      <use transform="translate(48.292916 0)scale(0.996264)" xlink:href="#CMR17-61"/>
      <use transform="translate(120.007704 0)scale(0.996264)" xlink:href="#CMR17-50"/>
     </g>
    </g>
    <g id="line2d_20">
     <path d="M 319.038502 266.270349 
L 339.038502 266.270349 
" style="fill:none;stroke:#2ca02c;stroke-linecap:square;stroke-width:1.5;"/>
    </g>
    <g id="line2d_21"/>
    <g id="text_18">
     <!-- k=10 -->
     <g transform="translate(347.038502 269.770349)scale(0.1 -0.1)">
      <use transform="scale(0.996264)" xlink:href="#CMR17-107"/>
      <use transform="translate(48.292916 0)scale(0.996264)" xlink:href="#CMR17-61"/>
      <use transform="translate(120.007704 0)scale(0.996264)" xlink:href="#CMR17-49"/>
      <use transform="translate(165.698181 0)scale(0.996264)" xlink:href="#CMR17-48"/>
     </g>
    </g>
   </g>
  </g>
 </g>
 <defs>
  <clipPath id="p1bb72fe038">
   <rect height="265.0032" width="357.12" x="57.6" y="41.2992"/>
  </clipPath>
 </defs>
</svg>
